<?xml version="1.0" encoding="UTF-8"?>
<svg xmlns="http://www.w3.org/2000/svg" version="1.1" viewBox="0 0 251.85 247.09">
  <defs>
    <style>
      .cls-1 {
        fill: #000449;
      }
    </style>
  </defs>
  <!-- Generator: Adobe Illustrator 28.6.0, SVG Export Plug-In . SVG Version: 1.2.0 Build 709)  -->
  <g>
    <g id="Layer_1">
      <g>
        <path class="cls-1" d="M175.47,46.19c6.66,0,12.07,4.39,12.07,9.8v133.36c0,5.86-5.91,9.82-12.13,9.82-2.7,0-5.47-.75-7.83-2.41l-36.37-25.59c-2.27-1.59-5.08-2.39-7.9-2.39s-5.63.8-7.9,2.39l-36.37,25.59c-2.37,1.66-5.13,2.41-7.83,2.41-6.23,0-12.13-3.96-12.13-9.82V55.99c0-5.41,5.4-9.8,12.07-9.8h104.34M175.47,26.19h-104.34c-7.8,0-15.31,2.61-21.14,7.35-6.94,5.64-10.92,13.82-10.92,22.45v133.36c0,8.99,4.22,17.37,11.59,23,5.76,4.4,13.05,6.82,20.54,6.82,7.02,0,13.71-2.09,19.34-6.05l32.77-23.05,32.77,23.05c5.63,3.96,12.32,6.05,19.34,6.05,7.49,0,14.79-2.42,20.54-6.82,7.37-5.63,11.59-14.01,11.59-23V55.99c0-8.63-3.98-16.81-10.92-22.45-5.83-4.74-13.34-7.35-21.14-7.35h0Z"/>
        <path class="cls-1" d="M162.4,97.17l-23.14.12c-1.01,0-1.91-.64-2.23-1.6l-7.26-21.98c-2.11-6.39-11.17-6.35-13.22.07l-7.04,22.05c-.31.96-1.2,1.62-2.21,1.62l-23.14.12c-6.73.03-9.49,8.66-4.02,12.59l18.79,13.51c.82.59,1.17,1.64.86,2.6l-7.04,22.05c-2.05,6.41,5.31,11.7,10.73,7.71l18.66-13.7c.81-.6,1.92-.6,2.74-.01l18.79,13.51c5.47,3.93,12.77-1.43,10.65-7.82l-7.26-21.98c-.32-.96.02-2.01.83-2.61l18.66-13.7c5.43-3.98,2.58-12.58-4.15-12.55ZM141.56,115.86l-6.17,4.53c-.27.2-.38.54-.27.86l2.4,7.27c1.47,4.44-3.61,8.17-7.41,5.44l-6.22-4.47c-.27-.19-.63-.19-.9,0l-6.17,4.53c-3.77,2.77-8.89-.91-7.46-5.36l2.33-7.29c.1-.32-.01-.66-.28-.86l-6.22-4.47c-3.8-2.73-1.88-8.73,2.8-8.76l7.66-.04c.33,0,.63-.22.73-.53l2.33-7.29c1.42-4.46,7.72-4.49,9.19-.05l2.4,7.27c.1.32.4.53.73.53l7.66-.04c4.68-.02,6.66,5.96,2.88,8.73Z"/>
      </g>
    </g>
  </g>
</svg>