<?xml version="1.0" encoding="UTF-8"?>
<svg xmlns="http://www.w3.org/2000/svg" version="1.1" viewBox="0 0 251.85 247.09">
  <defs>
    <style>
      .cls-1 {
        fill: #000449;
      }
    </style>
  </defs>
  <!-- Generator: Adobe Illustrator 28.6.0, SVG Export Plug-In . SVG Version: 1.2.0 Build 709)  -->
  <g>
    <g id="Layer_1">
      <path class="cls-1" d="M164.23,149.59c-3.14-34.36-35.95-59.65-70.11-53.7.42-.18.84-.37,1.27-.53.49-.19.99-.34,1.49-.52,20.41-7.14,40.74-13.25,61.16-20.38,5.27-1.84,9.32,1.32,8.89,6.91-1.7,22.03-.88,45.11-2.58,67.14-.03.36-.08.72-.12,1.07Z"/>
      <path class="cls-1" d="M98.48,128.95c7.83,11.54,19.13,20.25,32.51,24.85-11.79,4.12-23.59,8.25-35.38,12.37h0c.96-12.41,1.91-24.81,2.87-37.21M94.04,95.89c-.04.37-.1.74-.13,1.11-1.76,22.87-3.52,45.74-5.28,68.61-.36,4.68,2.3,7.72,6.22,7.72.94,0,1.95-.18,3.01-.54,21.19-7.4,42.38-14.81,63.57-22.22.52-.18,1.04-.34,1.55-.54.45-.17.88-.37,1.32-.55-3.74.65-7.44.97-11.06.97-30.73,0-56.27-22.65-59.18-54.55h0Z"/>
      <path class="cls-1" d="M128.85,19.9c-57.29,0-103.73,46.44-103.73,103.73s46.44,103.73,103.73,103.73,103.73-46.44,103.73-103.73S186.14,19.9,128.85,19.9ZM128.85,208.64c-47,0-85.09-38.1-85.09-85.09s38.1-85.09,85.09-85.09,85.09,38.1,85.09,85.09-38.1,85.09-85.09,85.09Z"/>
    </g>
  </g>
</svg>