<?xml version="1.0" encoding="UTF-8"?>
<svg xmlns="http://www.w3.org/2000/svg" version="1.1" viewBox="0 0 219.57 200.68">
  <defs>
    <style>
      .cls-1 {
        fill: #000449;
      }

      .cls-2, .cls-3, .cls-4 {
        fill: none;
        stroke: #000449;
      }

      .cls-2, .cls-4 {
        stroke-miterlimit: 10;
        stroke-width: 3px;
      }

      .cls-3 {
        stroke-linecap: round;
        stroke-linejoin: round;
        stroke-width: 20px;
      }

      .cls-4 {
        stroke-dasharray: 8.3 8.3;
      }
    </style>
  </defs>
  <!-- Generator: Adobe Illustrator 28.6.0, SVG Export Plug-In . SVG Version: 1.2.0 Build 709)  -->
  <g>
    <g id="Layer_1">
      <g>
        <g>
          <g>
            <path class="cls-1" d="M194.13,34.7c-1.93,2.19-3.85,4.38-5.78,6.56-1.72,1.93-3.74,2.25-5.69.56-1.96-1.69-1.9-3.89-.3-5.77,3.77-4.45,7.64-8.81,11.54-13.13,1.77-1.96,3.99-2.35,6-.51,1.89,1.73,1.72,3.81.02,5.73-1.93,2.18-3.85,4.37-5.78,6.56Z"/>
            <path class="cls-1" d="M197,78.92c2.18,1.92,4.38,3.84,6.55,5.78,1.92,1.71,2.28,3.78.62,5.7-1.65,1.91-3.85,1.94-5.76.3-4.51-3.86-8.97-7.77-13.34-11.77-1.83-1.68-2.12-3.78-.32-5.72,1.8-1.94,3.78-1.74,5.7-.06,2.19,1.92,4.37,3.85,6.55,5.77Z"/>
            <path class="cls-1" d="M138.73,38.16c-2.1-1.86-4.24-3.68-6.3-5.58-1.91-1.76-2.57-3.84-.66-5.95,1.9-2.11,3.98-1.69,5.96.05,4.21,3.71,8.41,7.43,12.64,11.12,1.98,1.73,2.64,3.7.95,5.94-1.49,1.97-3.9,1.94-6.26-.03-2.15-1.8-4.22-3.7-6.32-5.55Z"/>
            <path class="cls-1" d="M120.58,64.34c-.24-1.39-1-2.97-.58-4.12.44-1.18,1.97-2.64,3.15-2.75,6.22-.63,12.48-.96,18.74-1.22,2.23-.09,3.65,1.3,3.81,3.58.16,2.42-1.09,4.03-3.49,4.23-6.13.5-12.28.86-18.42,1.17-.89.04-1.81-.48-3.2-.88Z"/>
          </g>
          <path class="cls-3" d="M18.91,70.62v26.61c3.16-.86,6.58-1.09,10.12-.48,10.14,1.75,18,10.25,18.98,20.49,1.31,13.77-9.49,25.35-22.99,25.35-2.12,0-4.16-.29-6.11-.82v26.61c0,4.32,3.5,7.82,7.82,7.82h132.81c4.32,0,7.82-3.5,7.82-7.82v-97.78c0-4.32-3.5-7.82-7.82-7.82H26.73c-4.32,0-7.82,3.5-7.82,7.82Z"/>
        </g>
        <g>
          <line class="cls-2" x1="123.99" y1="71.83" x2="123.99" y2="75.83"/>
          <line class="cls-4" x1="123.99" y1="84.13" x2="123.99" y2="163"/>
          <line class="cls-2" x1="123.99" y1="167.16" x2="123.99" y2="171.16"/>
        </g>
        <path class="cls-1" d="M161.65,23.47c-.26-2.79-.58-5.58-.78-8.38-.19-2.59.75-4.55,3.59-4.79,2.83-.24,4.06,1.49,4.31,4.12.53,5.59,1.05,11.17,1.6,16.76.26,2.62-.61,4.51-3.37,4.99-2.43.42-4.18-1.25-4.54-4.31-.34-2.78-.55-5.58-.81-8.38Z"/>
        <path class="cls-1" d="M203.21,60.28c-2.8.15-5.6.35-8.4.44-2.6.08-4.52-.94-4.64-3.78-.12-2.84,1.66-4,4.29-4.14,5.6-.3,11.21-.6,16.81-.92,2.63-.15,4.48.79,4.84,3.57.32,2.45-1.42,4.12-4.49,4.36-2.8.22-5.6.32-8.4.47Z"/>
      </g>
    </g>
  </g>
</svg>