<?xml version="1.0" encoding="UTF-8"?>
<svg id="Layer_1" data-name="Layer 1" xmlns="http://www.w3.org/2000/svg" viewBox="0 0 170.37 165.88">
  <defs>
    <style>
      .cls-1 {
        fill: #fff;
      }

      .cls-2 {
        fill: #000449;
      }
    </style>
  </defs>
  <rect class="cls-2" x="110.13" y="70.18" width="25.51" height="25.51" rx="6.52" ry="6.52"/>
  <rect class="cls-2" x="72.43" y="70.18" width="25.51" height="25.51" rx="6.52" ry="6.52"/>
  <rect class="cls-2" x="111.55" y="102.75" width="25.51" height="25.51" rx="6.52" ry="6.52"/>
  <rect class="cls-2" x="72.43" y="102.75" width="25.51" height="25.51" rx="6.52" ry="6.52"/>
  <rect class="cls-2" x="34.73" y="102.75" width="25.51" height="25.51" rx="6.52" ry="6.52"/>
  <path class="cls-2" d="M140.41,0L29.37.06C14.7,1.12,1.67,10.96.04,24.46l-.02,44.17h-.02s.01,21.37.01,21.37v27.25s.01,0,.01,0v24.17c1.64,13.5,14.68,23.34,29.35,24.4l111.03.06c15.27-.95,28.86-11.26,29.96-25.41V25.41c-1.11-14.15-14.69-24.46-29.96-25.41ZM144.26,86.82v36.01c-.77,9.81-10.19,16.96-20.78,17.62l-76.99-.04c-10.17-.74-19.21-7.56-20.34-16.92v-16.76s-.03,0-.03,0v-18.9s0-14.82,0-14.82h.01s0-14.83,0-14.83h118.12v28.63Z"/>
  <g>
    <path class="cls-1" d="M107.81,34.87h2.5c.6,0,1.81-.95,2.13-1.49,1.33-2.27-1.59-3.69-.32-5.49.31-.44,3.05-1.96,3.61-2.08,2.66-.55,3.14,3.33,3.41,5.23.36,2.5.55,8.69-1.98,10.16-2.26,1.31-6.85.98-9.35.48-.73-.15-2.88-.92-3.33-.9-.84.04-2.89.91-4.04,1.1-3.92.66-8.02.38-11.57-1.5-1.53,6.38-7.47,10.46-13.52,12.06-.59-1.99-.29-6.1,1.74-7.22.51-.28,1.35-.38,1.96-.63,1.5-.62,2.92-1.72,3.1-3.46.04-.37-.02-.18-.23-.26-3.65-1.33-6.25-1.91-6.78-6.49-1.39-12.21,16.62-11.73,14.77.13,1.04.07,2.08.38,3.1,0-2.86-13.94,18.09-13.57,14.82.35ZM99.84,29.05c-1.13.18-2.2,1.37-2.33,2.5-.25,2.34,2.4,4.2,4.43,2.87,2.73-1.77,1.14-5.9-2.1-5.38ZM82.09,30.08c-.65.09-1.59.8-1.93,1.35-1.74,2.83,2.32,5.78,4.48,3.27,1.71-1.99-.02-4.98-2.54-4.62Z"/>
    <path class="cls-1" d="M81.16,8.73c.35-.39,3.63-1.94,4.17-1.96,2.27-.06,3.07,4.71,3.19,6.46.15,2.14-.35,7.16-1.89,8.75-1.74,1.8-7.42,1.01-9.69.59-.67-.12-2.37-.75-2.81-.74-.22,0-1.73.77-2.29.91-2.37.62-4.62.48-6.96-.17-2.04-.57-3.39-2.04-3.23,1.51.12,2.67,1.29,5.42,1.53,7.95s-1.95,5.14-4.28,5.92c-2.33-5.26-5.77-11.75-3.75-17.62.81-2.34,2.96-4.66,5.45-5.14-.67-5.94,4.9-10.84,10.7-8.85,2.5.86,4.79,3.42,5.12,6.07.27,2.15-.69,3.84,2.55,3.48,1.6-.17,2.8-1.31,2.63-2.97-.14-1.3-1.59-2.94-.42-4.22ZM67.96,10.79c-.96.16-2.2,1.32-2.35,2.29-.44,2.81,2.25,4.89,4.7,3.32,2.82-1.8,1.14-6.2-2.34-5.62Z"/>
    <path class="cls-1" d="M96.32,17.18c.99-.98,2.57-.94,3.5.1,1.29-1.02,3.03-1.25,3.99.31,1.54,2.48-1.83,5.03-3.85,2.84-2.34,2.52-5.84-1.07-3.65-3.25Z"/>
    <path class="cls-1" d="M109.07,17.18c.99-.98,2.57-.94,3.5.1,1.3-.99,3.03-1.26,3.99.31,1.54,2.48-1.83,5.03-3.85,2.84-2.34,2.52-5.84-1.07-3.65-3.25Z"/>
    <path class="cls-1" d="M69.56,29.53c-.84,1.53-3.4,1.02-4-.57-.96-2.53,2.37-4.48,4.09-2.37,2.04-2.27,5.48.19,3.85,2.82-.86,1.39-2.93,1.31-3.93.12Z"/>
  </g>
</svg>