<?xml version="1.0" encoding="UTF-8"?>
<svg xmlns="http://www.w3.org/2000/svg" version="1.1" viewBox="0 0 407.41 303.09">
  <defs>
    <style>
      .cls-1 {
        fill: #000449;
      }
    </style>
  </defs>
  <!-- Generator: Adobe Illustrator 28.6.0, SVG Export Plug-In . SVG Version: 1.2.0 Build 709)  -->
  <g>
    <g id="Layer_1">
      <g>
        <path class="cls-1" d="M386.45,140.94c-2.12-7.23-10.33-10.7-16.98-7.16-4.89,2.61-10.39,5.54-14.84,7.92-4.8,2.56-6.55,8.57-3.88,13.31,3.89,6.9,7.1,14.35,1.79,22.54-6.33,9.76-21.51,8.04-27.58,6.89,2.41-6.03,3.57-12.69,3.1-19.68-1.48-22.26-19.55-40.3-41.81-41.72-26.1-1.66-47.78,19.02-47.78,44.75,0,0,.35,11.2,2.32,14.63.85,1.48-6.83,1.44-6.83,1.44-3.63,0-7.99-.31-12.15-.63,1.15-4.84,1.51-9.99.85-15.33-2.58-20.92-20.24-37.19-41.3-38.01-24.73-.96-45.07,18.8-45.07,43.31,0,1.04.05,2.06.12,3.08,0,.02,0,.03,0,.05,1.58,32.71,22.09,38.37,41.23,43.73-1.83,16.37-17.32,21.94-25.49,23.75-4.14.92-7.74,3.48-9.92,7.12-9.25,15.44-4.42,35.56-4.42,35.56,39.05-10.87,68.63-34.1,78.61-69.94,0,0,36.84,22.55,90.64,1.92,0,0,41.6,16.98,74.4,2.37,0,0,22.7-19.68,5-79.94ZM182.42,189.42c-11.24,1.84-20.82-7.74-18.98-18.98,1.12-6.81,6.61-12.3,13.41-13.41,11.24-1.84,20.82,7.74,18.98,18.98-1.12,6.81-6.61,12.3-13.41,13.41ZM285.55,184.89c-11.27,1.42-20.74-8.06-19.32-19.32.97-7.68,7.17-13.88,14.84-14.84,11.27-1.42,20.74,8.06,19.32,19.32-.97,7.68-7.17,13.88-14.84,14.84Z"/>
        <g>
          <path class="cls-1" d="M291.32,78.45c-4.43,0-8.35,2.14-10.82,5.42-2.47-3.29-6.39-5.42-10.82-5.42-7.48,0-13.55,6.07-13.55,13.55s6.07,13.55,13.55,13.55c4.43,0,8.35-2.14,10.82-5.42,2.47,3.29,6.39,5.42,10.82,5.42,7.48,0,13.55-6.07,13.55-13.55s-6.07-13.55-13.55-13.55Z"/>
          <path class="cls-1" d="M365.32,78.45c-4.43,0-8.35,2.14-10.82,5.42-2.47-3.29-6.39-5.42-10.82-5.42-7.48,0-13.55,6.07-13.55,13.55s6.07,13.55,13.55,13.55c4.43,0,8.35-2.14,10.82-5.42,2.47,3.29,6.39,5.42,10.82,5.42,7.48,0,13.55-6.07,13.55-13.55s-6.07-13.55-13.55-13.55Z"/>
        </g>
        <g>
          <path class="cls-1" d="M206.63,29.92c-2.68-6.77-10.01-9.53-16.42-6.1l-15.14,7.34c-5.42,2.91-7.55,9.58-4.84,15.1,3.61,7.36,7.44,17.54-1.4,24.63-6.76,5.43-20.08,7.09-25.24-.39.44-2.53.71-5.12.71-7.78,0-25.15-20.39-45.54-45.54-45.54-14.7,0-27.74,7-36.07,17.81-6.87,7.69-10.26,17.98-10.26,29.75,0,2.01,0,4.02.27,6.03,0,0-29.73,5.41-34.78,42.25,0,0-8.47,24.69,25.05,89.53,0,0,15.07-4.92,23.2-24.56,1.19-2.87,1.45-6.05.77-9.09-5.11-22.99-16.94-67.2-.64-59.77,36.96,16.85,64.3-.38,64.3-.38,0,0,46.61,16.26,71.79,1.71,0,0,23.49-31.87,4.24-80.55ZM101.13,80.84c-11.95,1.51-21.99-8.54-20.49-20.49,1.03-8.14,7.6-14.71,15.74-15.74,11.95-1.51,22,8.54,20.49,20.49-1.03,8.14-7.6,14.71-15.74,15.74Z"/>
          <path class="cls-1" d="M115.69,131.89c-4.43,0-8.35,2.14-10.82,5.42-2.47-3.29-6.39-5.42-10.82-5.42-7.48,0-13.55,6.07-13.55,13.55s6.07,13.55,13.55,13.55c4.43,0,8.35-2.14,10.82-5.42,2.47,3.29,6.39,5.42,10.82,5.42,7.48,0,13.55-6.07,13.55-13.55s-6.07-13.55-13.55-13.55Z"/>
        </g>
      </g>
    </g>
  </g>
</svg>