<?xml version="1.0" encoding="UTF-8"?>
<svg id="Layer_1" data-name="Layer 1" xmlns="http://www.w3.org/2000/svg" viewBox="0 0 182.29 185.16">
  <defs>
    <style>
      .cls-1 {
        stroke: #000449;
        stroke-linecap: round;
        stroke-miterlimit: 10;
        stroke-width: 15px;
      }

      .cls-1, .cls-2 {
        fill: #000449;
      }
    </style>
  </defs>
  <path class="cls-2" d="M91.26,13.16C43.76,13.16,5.26,51.66,5.26,99.16s38.5,86,86,86,86-38.5,86-86S138.75,13.16,91.26,13.16ZM91.26,155.76c-31.26,0-56.6-25.34-56.6-56.6s25.34-56.6,56.6-56.6,56.6,25.34,56.6,56.6-25.34,56.6-56.6,56.6Z"/>
  <path class="cls-2" d="M119.04,93.96h-20.52v-20.69c0-4.21-3.44-7.65-7.65-7.65s-7.65,3.44-7.65,7.65v26.74c-.11.52-.17,1.05-.17,1.6,0,4.21,3.44,7.65,7.65,7.65h28.35c4.21,0,7.65-3.44,7.65-7.65s-3.44-7.65-7.65-7.65Z"/>
  <path class="cls-1" d="M7.5,31.73C17.13,21.86,28.44,13.64,40.95,7.5"/>
  <path class="cls-1" d="M174.79,31.73c-9.63-9.86-20.94-18.09-33.45-24.23"/>
</svg>