<?xml version="1.0" encoding="UTF-8"?>
<svg id="Layer_1" data-name="Layer 1" xmlns="http://www.w3.org/2000/svg" viewBox="0 0 190.36 190.36">
  <defs>
    <style>
      .cls-1 {
        fill: #000449;
        stroke: #000449;
      }

      .cls-1, .cls-2 {
        stroke-miterlimit: 10;
        stroke-width: .25px;
      }

      .cls-3, .cls-2 {
        fill: #fff;
      }

      .cls-2 {
        stroke: #fff;
      }
    </style>
  </defs>
  <circle class="cls-1" cx="95.18" cy="95.18" r="95.05"/>
  <g>
    <path class="cls-3" d="M142.11,57.2c-6.25-1.68-12.5-1.45-18.93-2.89-10.34-2.31-19.02-7.46-27.88-12.61v-.14s-.08.05-.12.07c-.04-.02-.08-.05-.12-.07v.14c-8.86,5.15-17.54,10.3-27.88,12.61-6.43,1.44-12.68,1.21-18.93,2.89-2.34,26.61,3.1,52.75,22.07,73.26,3.7,3.99,20.07,17.67,24.98,18.35,4.92-.67,21.04-14.35,24.73-18.35,18.97-20.51,24.41-46.65,22.07-73.26ZM104.62,127.73c-1.45,1.27-7.51,6.29-9.32,6.47h0s-.08,0-.12,0c-.04,0-.09,0-.12,0h0c-1.81-.17-7.86-5.19-9.32-6.47-17.16-15.04-25.97-37.73-24.27-59.59,11.82-2.4,23.7-5.49,33.71-11.99,10.01,6.5,21.89,9.59,33.71,11.99,1.71,21.86-7.11,44.55-24.27,59.59Z"/>
    <path class="cls-2" d="M79.62,89.74c6.76,7.29,16.01,6.97,23.99.93,0,0,0,0,0,0l16.15-13.25c.14-.12.32.07.2.2l-25.72,29.6c-.63.81-1.77,1.19-2.67.55s-1.95-2.8-2.59-3.77c-2.55-3.88-5.27-7.68-7.78-11.58-.58-.9-1.65-2.74-1.58-2.68Z"/>
  </g>
</svg>