<?xml version="1.0" encoding="UTF-8"?>
<svg xmlns="http://www.w3.org/2000/svg" version="1.1" viewBox="0 0 255.96 247.09">
  <defs>
    <style>
      .cls-1 {
        fill: #ae005a;
      }
    </style>
  </defs>
  <!-- Generator: Adobe Illustrator 28.6.0, SVG Export Plug-In . SVG Version: 1.2.0 Build 709)  -->
  <g>
    <g id="Layer_1">
      <g>
        <g>
          <path class="cls-1" d="M64.33,159.99c-.12,3.86-1.35,6.71-4.16,8.43-3.54,2.17-7.4,3.49-11.62,2-3.29-1.17-5.28-3.55-6.24-6.89-5.1-17.83-10.21-35.65-15.33-53.47-3.1-10.8-6.22-21.59-9.32-32.39-1.53-5.34-.09-10.11,4.19-12.29,5.46-2.78,10.51-3.32,14.42.73,1.21,1.26,2.19,2.98,2.68,4.66,4.7,16.04,9.28,32.12,13.89,48.18,3.6,12.55,7.21,25.11,10.79,37.67.36,1.27.54,2.6.7,3.37Z"/>
          <path class="cls-1" d="M191.17,160.63c.84-3.1,1.63-6.15,2.5-9.17,7.68-26.81,15.36-53.61,23.06-80.41,1.54-5.35,6.15-8.36,11.34-7.45,7.07,1.24,11.14,5.38,10.65,11.08-.16,1.86-.79,3.7-1.31,5.52-7.96,27.82-15.94,55.63-23.92,83.45-1.72,5.99-6.94,8.73-12.98,7.07-3.31-.91-6.29-2.17-7.87-5.41-.69-1.42-.96-3.03-1.46-4.66Z"/>
          <path class="cls-1" d="M19.16,149.7c-3.59.04-5.86-1.48-6.65-4.2-3.6-12.4-7.17-24.82-10.68-37.25-1.02-3.61.77-6.59,4.34-7.68,1.41-.43,2.83-.85,4.25-1.21,3.51-.89,6.61.7,7.62,4.17,3.59,12.33,7.12,24.68,10.58,37.05,1.02,3.66-.72,6.58-4.32,7.7-1.94.6-3.91,1.09-5.14,1.43Z"/>
          <path class="cls-1" d="M234.76,153.33c-1.58-.49-4.23-1.03-6.61-2.14-2.73-1.26-3.54-4.21-2.56-7.68,1.57-5.54,3.18-11.07,4.77-16.6,1.86-6.48,3.7-12.96,5.57-19.43,1.09-3.76,4.18-5.46,7.99-4.43,1.29.35,2.56.73,3.84,1.12,3.7,1.1,5.49,4.1,4.46,7.8-2.32,8.32-4.74,16.61-7.12,24.91-1.12,3.91-2.23,7.83-3.37,11.74-.9,3.07-3,4.72-6.97,4.72Z"/>
        </g>
        <path class="cls-1" d="M191.75,96.27c-19.99-4.65-46.34-6.32-60.87-6.36h0c-.09,0-.18,0-.27,0-.09,0-.18,0-.27,0h0c-14.53.04-44.88,1.71-64.87,6.36,0,0-2.22,5.17,1.97,16.01,0,0,36.3-5.8,63.16-6.04,26.87.24,59.16,6.04,59.16,6.04,4.19-10.84,1.97-16.01,1.97-16.01Z"/>
        <g>
          <path class="cls-1" d="M173.34,117.18c-6.42,18.53-24.01,31.84-44.72,31.84s-38.31-13.31-44.72-31.84l-24.55,3c2.24,10.05,6.6,16.3,12.6,24.25-.01-.01-.03-.03-.04-.04.25.41.48.82.74,1.22,15.97,24.44,32.48,48.84,48.45,73.28,4.05,6.2,10.84,6.25,14.87.08l49.74-75.12c5.78-7.82,9.99-13.86,12.17-23.67l-24.55-3Z"/>
          <path class="cls-1" d="M83.9,85.2c6.42-18.53,24.01-30.84,44.72-30.84s38.31,12.31,44.72,30.84l25.54,3c-7.07-31.75-36.39-57.49-70.26-57.49s-63.19,25.74-70.26,57.49l25.54-3Z"/>
        </g>
      </g>
    </g>
  </g>
</svg>