<?xml version="1.0" encoding="UTF-8"?>
<svg xmlns="http://www.w3.org/2000/svg" version="1.1" viewBox="0 0 226.72 232.85">
  <defs>
    <style>
      .cls-1 {
        fill: #ae005a;
      }
    </style>
  </defs>
  <!-- Generator: Adobe Illustrator 28.6.0, SVG Export Plug-In . SVG Version: 1.2.0 Build 709)  -->
  <g>
    <g id="Layer_1">
      <g>
        <path class="cls-1" d="M172.18,82.82c-18.78-4.68-43.53-6.36-57.17-6.41h0c-.08,0-.17,0-.25,0-.08,0-.17,0-.25,0h0c-13.65.04-42.15,1.72-60.93,6.41,0,0-2.08,5.21,1.85,16.11,0,0,34.09-5.84,59.33-6.08,25.24.24,55.57,6.08,55.57,6.08,3.93-10.91,1.85-16.11,1.85-16.11Z"/>
        <g>
          <path class="cls-1" d="M154.11,103.88c-5.85,18.65-21.89,32.05-40.77,32.05s-34.92-13.4-40.77-32.05l-22.38,3.02c2.04,10.12,6.02,16.41,11.49,24.41-.01-.01-.02-.03-.04-.04.22.41.44.83.67,1.23,14.56,24.61,29.61,49.17,44.17,73.77,3.69,6.24,9.88,6.29,13.56.08l45.34-75.62c5.27-7.87,9.1-13.96,11.1-23.83l-22.38-3.02Z"/>
          <path class="cls-1" d="M70.87,71.95c6.03-17.03,22.55-28.35,42.01-28.35s35.98,11.31,42.01,28.35l23.99,2.76c-6.64-29.18-34.18-52.84-66-52.84s-59.36,23.66-66,52.84l23.99-2.76Z"/>
        </g>
        <rect class="cls-1" x="181.17" y="53.64" width="14.79" height="94.42" rx="6.81" ry="6.81" transform="translate(33.62 -46.53) rotate(15.43)"/>
        <rect class="cls-1" x="197.94" y="76.95" width="13.62" height="53.86" rx="6.81" ry="6.81" transform="translate(35.01 -50.72) rotate(15.43)"/>
        <rect class="cls-1" x="30.76" y="53.64" width="14.79" height="94.42" rx="6.81" ry="6.81" transform="translate(101.76 187.92) rotate(164.57)"/>
        <rect class="cls-1" x="15.16" y="76.95" width="13.62" height="53.86" rx="6.81" ry="6.81" transform="translate(70.78 198.17) rotate(164.57)"/>
      </g>
    </g>
  </g>
</svg>