<?xml version="1.0" encoding="UTF-8"?>
<svg xmlns="http://www.w3.org/2000/svg" version="1.1" viewBox="0 0 267.54 246.15">
  <defs>
    <style>
      .cls-1 {
        fill: #000449;
      }
    </style>
  </defs>
  <!-- Generator: Adobe Illustrator 28.6.0, SVG Export Plug-In . SVG Version: 1.2.0 Build 709)  -->
  <g>
    <g id="Layer_1">
      <g>
        <path class="cls-1" d="M189.75,82.33c0-26.79-21.72-48.51-48.51-48.51s-48.51,21.72-48.51,48.51c0,5.62.97,11.02,2.73,16.04h-.01c.29.93.66,1.87,1.09,2.83,0,0,0,.02.01.03.01.02.02.05.03.07,3.48,8.19,9.16,15.22,16.28,20.36,8.28,7.79,17.46,14.67,23.07,18.65,3.2,2.27,7.47,2.27,10.68.02,5.67-3.98,14.92-10.86,23.15-18.77,12.11-8.82,19.99-23.1,19.99-39.23ZM141.24,58.96c12.91,0,23.37,10.46,23.37,23.37s-10.46,23.37-23.37,23.37-23.37-10.46-23.37-23.37,10.46-23.37,23.37-23.37Z"/>
        <path class="cls-1" d="M174.87,137.06c-2.3-1.02-4.67-1.9-7.06-2.68-7.79,5.81-15.97,10.85-21.17,13.9-1.62.95-3.51,1.43-5.4,1.44-1.89-.01-3.78-.49-5.4-1.44-5.2-3.05-13.38-8.09-21.17-13.9-2.4.78-4.76,1.66-7.06,2.68-37.47,16.65-36.1,54.74-35.77,58.06.38,3.84,2.34,6.76,2.34,6.76,2.07,2.78,4.97,4.85,8.25,6.6,5.63,2.99,11.83,4.88,18.25,6.32,13.25,2.98,26.79,3.99,40.48,4.28.03,0,.05,0,.08,0,.03,0,.05,0,.08,0,13.69-.3,27.23-1.3,40.48-4.28,6.42-1.44,12.62-3.33,18.25-6.32,3.28-1.74,6.19-3.81,8.25-6.6,0,0,1.96-2.92,2.34-6.76.33-3.32,1.71-41.42-35.77-58.06Z"/>
      </g>
    </g>
  </g>
</svg>