<?xml version="1.0" encoding="UTF-8"?>
<svg xmlns="http://www.w3.org/2000/svg" version="1.1" viewBox="0 0 242.22 257.78">
  <defs>
    <style>
      .cls-1 {
        fill: #000449;
      }
    </style>
  </defs>
  <!-- Generator: Adobe Illustrator 28.6.0, SVG Export Plug-In . SVG Version: 1.2.0 Build 709)  -->
  <g>
    <g id="Layer_1">
      <g>
        <path class="cls-1" d="M142.02,107.62c-.34,2.14-.66,4.22-.99,6.31-.44,2.8-.79,5.61-1.34,8.39-.29,1.46-.84,2.89-1.4,4.28-.35.87-.4,1.64-.11,2.53.29.9.37,1.86.58,2.78.05.25.23.47.31.71.06.18.13.39.11.58-.85,8.41-1.71,16.81-2.56,25.22-.71,7.04-1.42,14.07-2.13,21.11-.29,2.87-.59,5.74-.89,8.61-.49,4.76-.98,9.53-1.44,14.29-.04.38.08.78.15,1.16.29,1.53.77,3.05.86,4.59.23,3.76-1.83,6.33-5.5,7.14-1.52.33-3.05.43-4.57.08-2.86-.66-4.83-2.94-5.1-6.16-.15-1.75.03-3.53.06-5.3.02-.93.08-1.85.05-2.78-.15-4.61-.32-9.21-.49-13.82-.02-.42-.07-.84-.21-1.26-.07,2.11-.15,4.22-.22,6.33-.09,2.57-.22,5.14-.25,7.71-.02,1.85.08,3.7.16,5.55.09,2.11-.02,4.2-1.03,6.12-1.25,2.38-3.34,3.46-5.94,3.4-1.48-.04-3.03-.26-4.42-.77-2.54-.93-3.87-2.99-3.9-5.64-.02-1.67.34-3.35.68-5,.17-.84.34-1.62.24-2.49-.39-3.5-.73-7.01-1.09-10.51-.49-4.87-.98-9.73-1.48-14.6-.56-5.53-1.13-11.07-1.69-16.6-.5-4.93-1-9.85-1.5-14.78-.32-3.16-.64-6.32-.96-9.49-.02-.21-.08-.42-.17-.6-.91-1.77-.9-3.59-.2-5.39.41-1.06.32-1.96-.18-2.96-1.02-2.01-1.34-4.22-1.67-6.43-.58-3.87-1.19-7.74-1.79-11.61-.03-.21-.09-.41-.17-.72-.72.03-1.46.06-2.19.1-4.5.25-8.99.56-13.49.75-3.63.15-6.42-1.49-8.23-4.58-2.43-4.14-2.11-8.15.81-12,5.22-6.88,10.37-13.82,15.59-20.7,1.95-2.57,4.62-3.95,7.86-4.03,4.08-.11,8.16-.12,12.24-.16,1.67-.02,2.41.74,2.41,2.43,0,3.66,0,7.31,0,10.97,0,.37,0,.74.01,1.11.08,2.23,1.15,3.27,3.4,3.3,4.32.04,8.64.07,12.96.1.19,0,.37,0,.56,0,2.45-.15,3.24-1.08,3.26-3.53.02-4.08.11-8.16.2-12.24.03-1.39.84-2.14,2.24-2.13,4.19.03,8.37.03,12.56.16,3.2.1,5.83,1.52,7.76,4.07,5.31,7.01,10.55,14.08,15.88,21.08,4.5,5.92,1.19,14.87-6.16,16.15-.36.06-.74.07-1.1.05-5.16-.28-10.32-.58-15.48-.86-.28-.02-.57,0-.91,0ZM134.89,136.4h-34.79c.83,8.21,1.66,16.34,2.49,24.51h11.69c.17-4.8.33-9.53.49-14.29h5.3c.04.83.08,1.62.11,2.42.13,3.71.27,7.41.37,11.12.02.65.23.84.88.84,3.39-.03,6.78-.01,10.17-.02.25,0,.51-.03.79-.05.83-8.21,1.66-16.34,2.49-24.53ZM127.96,92.32c0,.05,0,.11.02.15.52.73.67,1.49.21,2.3-.49.85-1.28,1.01-2.19.97-1.3-.06-2.6-.07-3.89-.11-.62-.02-.95.24-.95.88,0,2.23-.02,4.45.03,6.68,0,.35.29.86.59,1.01,2.03,1.03,4.05,1.27,6.08-.15.76-.54,1.67-.96,2.57-1.2,1.9-.5,3.82-.43,5.74.03,1.1.27,2.23.51,3.36.58,6.24.39,12.48.72,18.73,1.05.44.02.9-.07,1.33-.18,3.45-.85,5.64-5.87,3.16-9.35-1.4-1.96-2.88-3.86-4.35-5.78-.11-.15-.44-.32-.55-.26-1.4.76-2.99,1.22-3.88,2.76-.93,1.62-2.39,2.69-4.21,3-2.08.35-4.2.63-6.3.62-1.98,0-3.84.28-5.65,1.04-1.97.82-4,1.4-6.13,1.59-1.31.11-1.91-.24-2.19-1.51-.21-.97-.23-1.99-.32-2.99-.08-.93-.29-1.14-1.2-1.15ZM106.15,92.3c-.97.03-1.18.26-1.25,1.18-.08,1.02-.12,2.07-.35,3.06-.27,1.19-.86,1.53-2.1,1.42-2.16-.18-4.22-.77-6.21-1.6-1.78-.75-3.61-1.07-5.57-1.03-1.89.04-3.8-.18-5.68-.45-1.81-.26-3.48-1.03-4.47-2.62-.97-1.57-2.38-2.42-3.94-3.18-.48-.23-.72-.18-1.03.25-1.31,1.8-2.68,3.56-4,5.34-1.95,2.63-1.67,5.55.43,8.1.96,1.17,2.3,1.81,3.85,1.73,5.4-.28,10.79-.6,16.19-.9,2.17-.12,4.3-.35,6.44-.83,2.57-.58,5.22-.53,7.49,1.09,1.92,1.36,3.83,1.46,5.92.55.71-.31,1.03-.72,1.02-1.5-.03-2.09-.02-4.19,0-6.28,0-.75-.3-1.05-1.05-1.02-1.43.06-2.86.12-4.29.1-1.57-.02-2.42-1.56-1.68-2.94.08-.15.17-.3.27-.48ZM131.98,164.98h-11.23c.25,7.05.5,14.05.75,21.04.2.04.3.08.4.08,2.46,0,4.93,0,7.39.02.53,0,.57-.28.61-.69.51-5.03,1.03-10.06,1.54-15.09.18-1.76.35-3.52.52-5.36ZM103.07,164.98c0,.29-.02.52,0,.76.66,6.5,1.35,13,1.97,19.51.07.76.35.89,1.02.88,2.01-.04,4.02,0,6.04-.02,1.52,0,1.34.25,1.4-1.33.16-4.44.32-8.89.44-13.33.06-2.14,0-4.28,0-6.47h-10.88ZM102.14,125.8c-.73.2-1.27.35-1.82.49-.42.1-.53.34-.46.76.21,1.21-.05,2.36-.47,3.5-.18.5-.23,1.05-.36,1.67.71.07,1.25.17,1.79.17,5.4,0,10.81-.04,16.21-.04,5.59,0,11.18.03,16.77.05,1.04,0,1.14-.13.92-1.16-.04-.18-.07-.37-.14-.54-.51-1.2-.71-2.43-.55-3.73.02-.18-.05-.49-.16-.53-.64-.23-1.31-.4-2.08-.62,0,.69,0,1.14,0,1.58,0,.48.01.95,0,1.43-.04,1.11-.67,1.9-1.63,2.05-1.25.21-2.28-.66-2.32-1.99-.03-1,0-1.99,0-3.08h-21.77c0,.42,0,.68,0,.94,0,.74.02,1.48,0,2.23-.04,1.09-.8,1.87-1.83,1.93-1.08.06-1.97-.65-2.06-1.77-.08-1.02-.02-2.06-.02-3.33ZM136.54,117.15h-39.18c.32,1.96.61,3.77.9,5.53,1.2-.26,2.25-.66,3.3-.68,9.43-.25,18.86-.35,28.29-.07,1.88.06,3.77-.05,5.53.79.04.02.1-.02.27-.06.28-1.75.57-3.54.89-5.51ZM119.63,107.6c-1.62-1.13-2.38-2.55-2.42-4.28-.06-2.36-.05-4.72,0-7.07.05-2.17,1.48-3.89,3.54-4.47.32-.09.67-.38.85-.68.67-1.15,1.62-1.99,2.93-2.07,1.44-.1,2.91-.01,4.34.17,1.75.23,2.87,1.3,3.26,3.04.17.76.18,1.56.29,2.51,1.27-.35,2.49-.7,3.8-1.07-.74-.68-1.41-1.2-1.96-1.83-1.88-2.16-2.42-4.77-2.43-7.54,0-4.21.02-8.43,0-12.64,0-.24-.23-.48-.35-.72-.11.22-.32.45-.33.67-.09,3.44-.13,6.89-.22,10.33-.05,1.94-.58,3.71-2.1,5.05-1.56,1.38-3.46,1.8-5.46,1.81-4.48.01-8.96-.04-13.43-.08-3.83-.03-6.73-2.64-6.93-6.46-.17-3.46-.1-6.94-.14-10.41,0-.21.03-.43-.02-.63-.03-.11-.2-.26-.3-.26-.11,0-.29.14-.32.25-.05.2-.03.42-.03.63,0,4.29.05,8.59,0,12.88-.04,3.5-1.1,6.57-4.13,8.67-.05.04-.07.12-.16.31,1.27.35,2.49.69,3.83,1.05,0-.64-.02-1.06,0-1.48.13-2.37,1.46-3.83,3.8-4.16.79-.11,1.58-.18,2.37-.22,2.04-.11,3.7.51,4.66,2.47.09.19.39.33.61.39,2.25.61,3.63,2.36,3.65,4.7.01,1.8,0,3.6,0,5.41,0,.71.02,1.44-.08,2.14-.2,1.48-.96,2.65-2.34,3.61h5.2ZM135.79,71.14c0,1.16,0,2.32,0,3.48,0,3.36-.02,6.73,0,10.09,0,1.32.21,2.6.97,3.87,2.92-5.26,6.79-9.33,12.4-11.64-.88-1.18-1.69-2.29-2.53-3.36-1.03-1.33-2.38-2.29-4.06-2.4-2.21-.14-4.44-.04-6.79-.04ZM84.89,76.94c5.66,2.31,9.51,6.42,12.43,11.65.75-1.36.95-2.65.95-3.99,0-4.26,0-8.53-.02-12.79,0-.25-.02-.51-.04-.74-2.05,0-4.01-.02-5.96,0-1.83.02-3.35.81-4.53,2.15-.99,1.13-1.84,2.39-2.84,3.71ZM121.65,190.09c.13,3.58.25,7.07.42,10.55,0,.16.41.43.63.43,1.64-.03,3.28-.14,4.92-.16.64,0,.79-.29.84-.85.18-2.05.41-4.1.61-6.15.13-1.26.24-2.51.36-3.82h-7.78ZM112.88,200.91s.06-.14.06-.24c.12-3.36.23-6.72.36-10.08.02-.52-.26-.54-.65-.54-1.77,0-3.55,0-5.32,0-.57,0-1.14,0-1.79,0,.37,3.67.74,7.2,1.11,10.87h6.23ZM96.6,111.65q-.01,1.57,1.41,1.57c8.53-.03,17.07-.08,25.6-.09,4.27,0,8.53.05,12.8.1.55,0,.86-.1.85-.71,0-.27.07-.55.11-.87h-40.76ZM125.4,205.43c-1.01,0-2.01-.03-3.02.02-.2.01-.56.34-.56.52,0,1.08-.02,2.18.17,3.24.3,1.72,1.25,2.44,3.01,2.41.76-.01,1.54-.11,2.27-.3,1.31-.34,1.96-1.12,1.95-2.46,0-1.02-.24-2.04-.37-3.06-.06-.5-.36-.62-.83-.6M109.65,204.93s0,.04,0,.06c-.92-.05-1.85-.1-2.77-.17-.38-.03-.7,0-.76.46-.14,1.12-.35,2.24-.38,3.37-.03,1.08.58,1.92,1.63,2.18.99.25,2.03.4,3.04.38,1.35-.03,2.14-.69,2.41-2,.23-1.13.23-2.3.32-3.46.04-.51-.22-.67-.72-.68-.93-.01-1.85-.09-2.77-.14ZM152.4,81.31q-.64-1.15-1.9-.64c-4.73,1.96-7.94,5.51-10.32,9.91-.32.59-.6,1.2-.95,1.89.89-.11,1.64-.26,2.4-.29.54-.03.82-.2,1.03-.74.97-2.51,2.43-4.73,4.51-6.43,1.63-1.33,3.43-2.45,5.22-3.71ZM81.6,81.47c.06.05.11.11.18.14,4.51,2.17,7.95,5.37,9.78,10.13.06.16.27.34.43.37.9.14,1.82.23,2.75.34-.02-.12-.01-.2-.05-.27-.25-.52-.5-1.05-.78-1.56-2.39-4.43-5.6-8-10.37-9.96-1.25-.51-1.28-.49-1.94.81ZM78.05,86.28c.44.23.88.48,1.33.69,1.33.61,2.46,1.49,3.18,2.77,1.05,1.85,2.83,2.09,4.76,2.33-.13-.29-.2-.48-.3-.66-1.5-2.75-3.79-4.65-6.56-6.01-1.69-.83-1.24-.93-2.41.7-.01.02,0,.05,0,.19ZM156.13,86.22c-.24-.33-.46-.57-.61-.84-.3-.54-.66-.68-1.21-.34-1.15.7-2.38,1.28-3.47,2.06-1.76,1.26-3.16,2.86-4.12,4.98,1.76-.25,3.49-.34,4.49-1.95.95-1.52,2.2-2.62,3.83-3.33.34-.15.65-.34,1.09-.57ZM95.91,107.35c0,.08.02.16.02.24h8.3c.03-.07.05-.13.08-.2-.63-.27-1.24-.64-1.89-.79-2.25-.5-4.35.43-6.51.76ZM129.84,107.55h8.29c-2.6-1.43-6.88-1.4-8.29,0Z"/>
        <path class="cls-1" d="M133.12,53.05c-.11,4.44-1.69,9.5-5.43,13.75-5.83,6.62-15.38,6.63-21.16-.04-4.52-5.21-6-11.38-5.19-18.18.54-4.5,2.25-8.5,5.26-11.9,5.78-6.52,15.23-6.54,21.01-.02,3.61,4.07,5.52,9.35,5.5,16.4ZM129.25,52.41c-.03-4.61-1.02-8.38-3.39-11.73-4.46-6.33-12-6.66-16.92-.71-2.32,2.8-3.5,6.11-3.84,9.72-.49,5.35.68,10.23,4.21,14.34,4.19,4.87,10.57,5.11,15.08.54,3.44-3.48,4.74-7.86,4.85-12.16Z"/>
      </g>
    </g>
  </g>
</svg>