<?xml version="1.0" encoding="UTF-8"?>
<svg xmlns="http://www.w3.org/2000/svg" version="1.1" viewBox="0 0 242.22 257.78">
  <defs>
    <style>
      .cls-1 {
        fill: #000449;
      }
    </style>
  </defs>
  <!-- Generator: Adobe Illustrator 28.6.0, SVG Export Plug-In . SVG Version: 1.2.0 Build 709)  -->
  <g>
    <g id="Layer_1">
      <g>
        <path class="cls-1" d="M110.03,59.4s-.03.01-.04.02l-1.62.93c-1.44.83-1.94,2.69-1.11,4.13.83,1.44,2.69,1.94,4.13,1.11l1.62-.93c.25-.15.47-.33.66-.54,7.67-5.28,7.95-13.44.77-21.1-5.2-5.56-4.98-8.36,1.02-12.98.28-.21.55-.45.81-.69l1.07-.62c1.44-.83,1.94-2.69,1.11-4.13-.83-1.44-2.69-1.94-4.13-1.11l-1.62.93c-.37.21-.67.49-.91.81-.15.1-.29.19-.45.3-8.03,5.68-8.78,13.72-1.72,21.2,5.33,5.65,5.44,8.01.39,12.66Z"/>
        <path class="cls-1" d="M154.63,80.84s-.03.01-.04.02l-1.62.93c-1.44.83-1.94,2.69-1.11,4.13.83,1.44,2.69,1.94,4.13,1.11l1.62-.93c.25-.15.47-.33.66-.54,7.67-5.28,7.95-13.44.77-21.1-5.2-5.56-4.98-8.36,1.02-12.98.28-.21.55-.45.81-.69l1.07-.62c1.44-.83,1.94-2.69,1.11-4.13-.83-1.44-2.69-1.94-4.13-1.11l-1.62.93c-.37.21-.67.49-.91.81-.15.1-.29.19-.45.3-8.03,5.68-8.78,13.72-1.72,21.2,5.33,5.65,5.44,8.01.39,12.66Z"/>
        <path class="cls-1" d="M63.74,68.59s-.03.01-.04.02l-1.62.93c-1.44.83-1.94,2.69-1.11,4.13.83,1.44,2.69,1.94,4.13,1.11l1.62-.93c.25-.15.47-.33.66-.54,7.67-5.28,7.95-13.44.77-21.1-5.2-5.56-4.98-8.36,1.02-12.98.28-.21.55-.45.81-.69l1.07-.62c1.44-.83,1.94-2.69,1.11-4.13-.83-1.44-2.69-1.94-4.13-1.11l-1.62.93c-.37.21-.67.49-.91.81-.15.1-.29.19-.45.3-8.03,5.68-8.78,13.72-1.72,21.2,5.33,5.65,5.44,8.01.39,12.66Z"/>
        <path class="cls-1" d="M193.55,122.05c-4.07-1.28-8.81-.68-13.24-.5-8.61.34-17.26,1.91-25.79,1.33-20.98-1.43-40.05-9.23-58.19-19.5-18.24-10.31-37.76-11.03-57.69-7.13-8.21,1.61-13.68,8.29-14.32,15.96-.68,8.12,3.54,15.06,11.74,18.35,2.82,1.13,3.73,2.84,4.08,5.5,1.22,9.41,2.71,18.79,3.77,28.22,1.38,12.34,4.15,24.34,13.56,32.98,3.71,3.4,6.1,6.51,6.06,10.09l-3.14,6.85c-1.6,3.5-.05,7.68,3.45,9.28s7.68.05,9.28-3.45l4.15-9.06c.24-.07.47-.11.69-.09l36.23,1.83c9.66,0,19.32.18,28.97-.1,0,0,6.8-.32,10.26.27l3.94,8.59c1.6,3.5,5.78,5.05,9.28,3.45h0c3.5-1.6,5.05-5.78,3.45-9.28l-4.82-10.53s-.03-.05-.04-.07c.17-1.21.93-2.33,2.42-3.54,7.58-6.13,12.45-14.19,15.22-23.55,1.55-5.26,3.41-10.44,4.82-15.74.97-3.66,2.76-5.79,6.48-7.29,7.34-2.96,11.09-8.98,10.87-16.91-.22-7.72-4.13-13.62-11.47-15.93ZM149.62,198.38c-4.26,1.6-9.04,3.4-13.61,3.52l-38.98-.73c-18.44,1.11-38.09-9.75-40.85-35.63-1.08-10.1-2.52-20.16-4.02-30.2-.53-3.51.52-4.88,4.06-5.01,8.33-.31,16.19,1.05,23.55,5.24,25.14,14.31,51.91,23.18,81.06,23.88,4.64.11,9.28.02,14.65.02-3.71,16.49-8.1,32.26-25.86,38.93ZM184.92,145.17c-4.76.79-9.55,1.41-14.34,1.96-2.64.3-5.32.3-7.98.44-26.58-.56-51.27-8.01-74.17-21.11-12.77-7.31-26.03-9.64-40.35-7.35-1.97.31-4.27,1.01-5.9.31-2.17-.93-5.03-2.83-5.38-4.72-.34-1.85,1.86-4.41,3.41-6.28.67-.81,2.47-.73,3.77-.95,18.59-3.2,35.76-.09,52.33,9.47,18.17,10.49,38,17.09,59.15,18.17,8.56.44,17.21-.93,25.82-1.49.49-.03.97-.22,1.46-.31,6.01-1.1,9.46.34,10.2,4.25.71,3.78-2.19,6.63-8.02,7.6Z"/>
      </g>
    </g>
  </g>
</svg>