<?xml version="1.0" encoding="UTF-8"?>
<svg xmlns="http://www.w3.org/2000/svg" version="1.1" viewBox="0 0 242.22 257.78">
  <defs>
    <style>
      .cls-1 {
        fill: #000449;
      }
    </style>
  </defs>
  <!-- Generator: Adobe Illustrator 28.6.0, SVG Export Plug-In . SVG Version: 1.2.0 Build 709)  -->
  <g>
    <g id="Layer_1">
      <path class="cls-1" d="M39.7,163.79c.05-.57.08-1.14.14-1.7.84-7.66,4.45-13.64,11.03-17.64,4.81-2.92,9.78-5.56,14.68-8.32,10.91-6.14,21.82-12.27,32.72-18.42,3.66-2.07,7.55-3.51,11.69-4.25.33-.06.34-.23.34-.49,0-3.68,0-7.37,0-11.05,0-1.5.18-2.98.64-4.41.76-2.37,2.1-4.39,3.8-6.17,1.73-1.81,3.73-3.25,5.94-4.41,1.74-.91,3.16-2.13,4.16-3.85,1.69-2.89,1.46-6.65-.57-9.32-1.19-1.56-2.69-2.71-4.53-3.35-4.2-1.46-8.95-.32-11.71,3.4-1.01,1.36-1.6,2.89-1.65,4.6-.04,1.38-.29,2.69-1.12,3.84-1.53,2.09-4.17,2.97-6.55,2.18-2.51-.83-4.13-3.08-4.09-5.72.07-5.03,1.75-9.46,5.06-13.24,3.71-4.24,8.43-6.61,14.01-7.28.41-.05.81-.1,1.22-.15.77,0,1.54,0,2.31,0,.15.02.29.04.44.06,1.14.16,2.31.23,3.43.49,5.45,1.27,9.85,4.15,13.04,8.76,2.96,4.28,4.1,9.05,3.41,14.21-.69,5.14-3.12,9.36-6.98,12.78-1.49,1.32-3.21,2.3-4.93,3.27-.98.55-1.87,1.24-2.61,2.09-.52.59-.96,1.23-.96,2.08,0,3.75,0,7.49,0,11.24,0,.31.11.4.39.45,3.64.64,7.11,1.8,10.36,3.56,2.1,1.13,4.18,2.31,6.26,3.48,6.52,3.66,13.03,7.33,19.55,11,6.03,3.39,12.06,6.78,18.08,10.17,1.83,1.03,3.69,2.02,5.46,3.15,3.49,2.22,6.12,5.25,7.98,8.94,1.21,2.39,2.01,4.92,2.3,7.6.09.88.14,1.76.21,2.63v.82c-.02.17-.06.34-.07.51-.14,3.22-.94,6.26-2.37,9.14-2.07,4.17-5.13,7.43-9.15,9.77-2.62,1.52-5.42,2.53-8.44,2.92-.59.08-1.18.15-1.77.22H61.66c-.12-.02-.24-.05-.36-.07-1.18-.17-2.38-.25-3.54-.52-5.95-1.41-10.67-4.64-14.1-9.7-2.2-3.24-3.46-6.84-3.81-10.75-.04-.51-.09-1.01-.14-1.51,0-.35,0-.7,0-1.05ZM116.17,175.64c17.64,0,35.27,0,52.91,0,3.57,0,6.6-1.24,8.95-3.95,2.43-2.8,3.3-6.07,2.6-9.7-.68-3.55-2.71-6.16-5.86-7.92-5.55-3.11-11.08-6.23-16.63-9.34-10.01-5.63-20.02-11.25-30.03-16.89-3.4-1.92-7.01-3.02-10.93-3.16-3.93-.14-7.7.5-11.22,2.27-2.11,1.06-4.16,2.25-6.22,3.41-6.5,3.64-13,7.3-19.49,10.95-7.61,4.28-15.23,8.56-22.84,12.85-4.35,2.45-6.6,7.09-5.78,11.96.5,3,2.02,5.4,4.43,7.23,2.12,1.61,4.54,2.3,7.19,2.29,17.64,0,35.27,0,52.91,0Z"/>
    </g>
  </g>
</svg>