<?xml version="1.0" encoding="UTF-8"?>
<svg xmlns="http://www.w3.org/2000/svg" version="1.1" viewBox="0 0 242.22 257.78">
  <defs>
    <style>
      .cls-1 {
        fill: #000449;
      }
    </style>
  </defs>
  <!-- Generator: Adobe Illustrator 28.6.0, SVG Export Plug-In . SVG Version: 1.2.0 Build 709)  -->
  <g>
    <g id="Layer_1">
      <g>
        <g>
          <path class="cls-1" d="M82.63,72.97c-.51.6-.85,1.09-1.27,1.49-.75.72-1.67.72-2.33.07-.64-.63-.63-1.61.07-2.34,1.06-1.1,2.17-2.14,3.21-3.25.26-.28.45-.74.47-1.12.06-1.38.02-2.77.02-4.34-1.49.86-2.84,1.62-4.15,2.42-.17.11-.26.41-.32.64-.4,1.44-.77,2.88-1.16,4.31-.31,1.13-1.09,1.67-2.03,1.41-.97-.26-1.36-1.06-1.09-2.22.12-.51.25-1.01.44-1.74-1.12.63-2.05,1.16-2.97,1.69-1.1.62-2,.48-2.52-.38-.52-.87-.21-1.74.89-2.38.93-.55,1.88-1.08,3.01-1.74-.77-.22-1.35-.37-1.92-.55-.97-.29-1.46-1.09-1.24-1.98.22-.87,1.07-1.36,2.05-1.11,1.44.36,2.87.8,4.33,1.12.43.1.99.04,1.38-.16,1.21-.62,2.38-1.35,3.72-2.12-1.48-.85-2.85-1.66-4.24-2.42-.17-.09-.48.03-.71.09-1.53.39-3.05.84-4.6,1.19-1.19.27-2.21-.69-1.88-1.81.15-.5.7-.97,1.19-1.25.51-.3,1.16-.37,1.93-.59-1.06-.62-1.97-1.15-2.87-1.67-1.19-.69-1.54-1.5-1.03-2.41.52-.92,1.45-1.05,2.66-.36.89.5,1.77,1.01,2.85,1.64-.18-.71-.32-1.23-.44-1.75-.27-1.14.15-1.99,1.08-2.24.94-.25,1.73.3,2.04,1.42.39,1.44.76,2.88,1.17,4.31.07.25.19.57.39.69,1.29.79,2.61,1.53,4.07,2.37,0-1.7.02-3.24-.02-4.77,0-.23-.25-.48-.43-.67-1.02-1.04-2.07-2.07-3.09-3.11-.83-.84-.92-1.76-.24-2.47.68-.71,1.67-.64,2.53.21.35.35.68.72,1.26,1.03,0-.93,0-1.87,0-2.8,0-.37-.03-.75.03-1.12.13-.81.85-1.36,1.67-1.31.84.05,1.45.62,1.48,1.5.04,1.23.01,2.47.01,3.94.6-.58,1.02-1,1.47-1.41.74-.67,1.72-.69,2.34-.06.64.65.64,1.59-.08,2.33-1.03,1.08-2.13,2.09-3.14,3.19-.3.33-.52.84-.55,1.28-.07,1.35-.03,2.71-.03,4.25,1.48-.84,2.82-1.59,4.13-2.39.22-.13.32-.51.4-.79.4-1.4.76-2.82,1.15-4.22.31-1.11,1.12-1.64,2.05-1.38.9.26,1.31,1.08,1.05,2.16-.13.54-.27,1.07-.45,1.82,1.18-.67,2.21-1.26,3.24-1.84.66-.38,1.4-.44,1.88.14.34.42.53,1.11.48,1.65-.04.39-.53.81-.92,1.06-.93.61-1.92,1.13-3.04,1.78.77.23,1.37.39,1.97.59.94.31,1.38,1.07,1.15,1.93-.23.89-.96,1.36-1.93,1.13-1.54-.36-3.06-.8-4.6-1.19-.25-.06-.59-.14-.79-.03-1.35.74-2.68,1.53-4.11,2.36,1.4.81,2.68,1.58,3.99,2.28.28.15.72.11,1.05.03,1.45-.36,2.88-.77,4.32-1.14,1.01-.26,1.8.16,2.07,1.05.27.92-.21,1.72-1.25,2.04-.55.17-1.11.32-1.86.53,1.12.66,2.08,1.2,3.03,1.77,1.04.62,1.36,1.56.84,2.4-.51.82-1.42.95-2.45.37-.96-.55-1.93-1.1-3.04-1.73.2.78.38,1.4.51,2.03.2.93-.26,1.7-1.14,1.95-.85.24-1.69-.21-1.95-1.13-.43-1.49-.8-3-1.22-4.49-.08-.28-.2-.65-.41-.78-1.29-.79-2.61-1.53-4.1-2.38,0,1.71-.02,3.24.02,4.77,0,.23.26.48.44.67,1.04,1.07,2.11,2.11,3.15,3.18.78.8.84,1.72.19,2.4-.68.72-1.62.68-2.46-.13-.39-.38-.73-.82-1.1-1.23-.09.05-.18.09-.26.14,0,1.1,0,2.21,0,3.31-.01,1.18-.61,1.91-1.56,1.93-.99.02-1.63-.73-1.64-1.95,0-1.03,0-2.05-.01-3.08,0-.06-.03-.11-.16-.52Z"/>
          <path class="cls-1" d="M130.21,90.79c-.51.6-.85,1.09-1.27,1.49-.75.72-1.67.72-2.33.07-.64-.63-.63-1.61.07-2.34,1.06-1.1,2.17-2.14,3.21-3.25.26-.28.45-.74.47-1.12.06-1.38.02-2.77.02-4.34-1.49.86-2.84,1.62-4.15,2.42-.17.11-.26.41-.32.64-.4,1.44-.77,2.88-1.16,4.31-.31,1.13-1.09,1.67-2.03,1.41-.97-.26-1.36-1.06-1.09-2.22.12-.51.25-1.01.44-1.74-1.12.63-2.05,1.16-2.97,1.69-1.1.62-2,.48-2.52-.38-.52-.87-.21-1.74.89-2.38.93-.55,1.88-1.08,3.01-1.74-.77-.22-1.35-.37-1.92-.55-.97-.29-1.46-1.09-1.24-1.98.22-.87,1.07-1.36,2.05-1.11,1.44.36,2.87.8,4.33,1.12.43.1.99.04,1.38-.16,1.21-.62,2.38-1.35,3.72-2.12-1.48-.85-2.85-1.66-4.24-2.42-.17-.09-.48.03-.71.09-1.53.39-3.05.84-4.6,1.19-1.19.27-2.21-.69-1.88-1.81.15-.5.7-.97,1.19-1.25.51-.3,1.16-.37,1.93-.59-1.06-.62-1.97-1.15-2.87-1.67-1.19-.69-1.54-1.5-1.03-2.41.52-.92,1.45-1.05,2.66-.36.89.5,1.77,1.01,2.85,1.64-.18-.71-.32-1.23-.44-1.75-.27-1.14.15-1.99,1.08-2.24.94-.25,1.73.3,2.04,1.42.39,1.44.76,2.88,1.17,4.31.07.25.19.57.39.69,1.29.79,2.61,1.53,4.07,2.37,0-1.7.02-3.24-.02-4.77,0-.23-.25-.48-.43-.67-1.02-1.04-2.07-2.07-3.09-3.11-.83-.84-.92-1.76-.24-2.47.68-.71,1.67-.64,2.53.21.35.35.68.72,1.26,1.03,0-.93,0-1.87,0-2.8,0-.37-.03-.75.03-1.12.13-.81.85-1.36,1.67-1.31.84.05,1.45.62,1.48,1.5.04,1.23.01,2.47.01,3.94.6-.58,1.02-1,1.47-1.41.74-.67,1.72-.69,2.34-.06.64.65.64,1.59-.08,2.33-1.03,1.08-2.13,2.09-3.14,3.19-.3.33-.52.84-.55,1.28-.07,1.35-.03,2.71-.03,4.25,1.48-.84,2.82-1.59,4.13-2.39.22-.13.32-.51.4-.79.4-1.4.76-2.82,1.15-4.22.31-1.11,1.12-1.64,2.05-1.38.9.26,1.31,1.08,1.05,2.16-.13.54-.27,1.07-.45,1.82,1.18-.67,2.21-1.26,3.24-1.84.66-.38,1.4-.44,1.88.14.34.42.53,1.11.48,1.65-.04.39-.53.81-.92,1.06-.93.61-1.92,1.13-3.04,1.78.77.23,1.37.39,1.97.59.94.31,1.38,1.07,1.15,1.93-.23.89-.96,1.36-1.93,1.13-1.54-.36-3.06-.8-4.6-1.19-.25-.06-.59-.14-.79-.03-1.35.74-2.68,1.53-4.11,2.36,1.4.81,2.68,1.58,3.99,2.28.28.15.72.11,1.05.03,1.45-.36,2.88-.77,4.32-1.14,1.01-.26,1.8.16,2.07,1.05.27.92-.21,1.72-1.25,2.04-.55.17-1.11.32-1.86.53,1.12.66,2.08,1.2,3.03,1.77,1.04.62,1.36,1.56.84,2.4-.51.82-1.42.95-2.45.37-.96-.55-1.93-1.1-3.04-1.73.2.78.38,1.4.51,2.03.2.93-.26,1.7-1.14,1.95-.85.24-1.69-.21-1.95-1.13-.43-1.49-.8-3-1.22-4.49-.08-.28-.2-.65-.41-.78-1.29-.79-2.61-1.53-4.1-2.38,0,1.71-.02,3.24.02,4.77,0,.23.26.48.44.67,1.04,1.07,2.11,2.11,3.15,3.18.78.8.84,1.72.19,2.4-.68.72-1.62.68-2.46-.13-.39-.38-.73-.82-1.1-1.23-.09.05-.18.09-.26.14,0,1.1,0,2.21,0,3.31-.01,1.18-.61,1.91-1.56,1.93-.99.02-1.63-.73-1.64-1.95,0-1.03,0-2.05-.01-3.08,0-.06-.03-.11-.16-.52Z"/>
          <path class="cls-1" d="M174.31,78.81c-.51.6-.85,1.09-1.27,1.49-.75.72-1.67.72-2.33.07-.64-.63-.63-1.61.07-2.34,1.06-1.1,2.17-2.14,3.21-3.25.26-.28.45-.74.47-1.12.06-1.38.02-2.77.02-4.34-1.49.86-2.84,1.62-4.15,2.42-.17.11-.26.41-.32.64-.4,1.44-.77,2.88-1.16,4.31-.31,1.13-1.09,1.67-2.03,1.41-.97-.26-1.36-1.06-1.09-2.22.12-.51.25-1.01.44-1.74-1.12.63-2.05,1.16-2.97,1.69-1.1.62-2,.48-2.52-.38-.52-.87-.21-1.74.89-2.38.93-.55,1.88-1.08,3.01-1.74-.77-.22-1.35-.37-1.92-.55-.97-.29-1.46-1.09-1.24-1.98.22-.87,1.07-1.36,2.05-1.11,1.44.36,2.87.8,4.33,1.12.43.1.99.04,1.38-.16,1.21-.62,2.38-1.35,3.72-2.12-1.48-.85-2.85-1.66-4.24-2.42-.17-.09-.48.03-.71.09-1.53.39-3.05.84-4.6,1.19-1.19.27-2.21-.69-1.88-1.81.15-.5.7-.97,1.19-1.25.51-.3,1.16-.37,1.93-.59-1.06-.62-1.97-1.15-2.87-1.67-1.19-.69-1.54-1.5-1.03-2.41.52-.92,1.45-1.05,2.66-.36.89.5,1.77,1.01,2.85,1.64-.18-.71-.32-1.23-.44-1.75-.27-1.14.15-1.99,1.08-2.24.94-.25,1.73.3,2.04,1.42.39,1.44.76,2.88,1.17,4.31.07.25.19.57.39.69,1.29.79,2.61,1.53,4.07,2.37,0-1.7.02-3.24-.02-4.77,0-.23-.25-.48-.43-.67-1.02-1.04-2.07-2.07-3.09-3.11-.83-.84-.92-1.76-.24-2.47.68-.71,1.67-.64,2.53.21.35.35.68.72,1.26,1.03,0-.93,0-1.87,0-2.8,0-.37-.03-.75.03-1.12.13-.81.85-1.36,1.67-1.31.84.05,1.45.62,1.48,1.5.04,1.23.01,2.47.01,3.94.6-.58,1.02-1,1.47-1.41.74-.67,1.72-.69,2.34-.06.64.65.64,1.59-.08,2.33-1.03,1.08-2.13,2.09-3.14,3.19-.3.33-.52.84-.55,1.28-.07,1.35-.03,2.71-.03,4.25,1.48-.84,2.82-1.59,4.13-2.39.22-.13.32-.51.4-.79.4-1.4.76-2.82,1.15-4.22.31-1.11,1.12-1.64,2.05-1.38.9.26,1.31,1.08,1.05,2.16-.13.54-.27,1.07-.45,1.82,1.18-.67,2.21-1.26,3.24-1.84.66-.38,1.4-.44,1.88.14.34.42.53,1.11.48,1.65-.04.39-.53.81-.92,1.06-.93.61-1.92,1.13-3.04,1.78.77.23,1.37.39,1.97.59.94.31,1.38,1.07,1.15,1.93-.23.89-.96,1.36-1.93,1.13-1.54-.36-3.06-.8-4.6-1.19-.25-.06-.59-.14-.79-.03-1.35.74-2.68,1.53-4.11,2.36,1.4.81,2.68,1.58,3.99,2.28.28.15.72.11,1.05.03,1.45-.36,2.88-.77,4.32-1.14,1.01-.26,1.8.16,2.07,1.05.27.92-.21,1.72-1.25,2.04-.55.17-1.11.32-1.86.53,1.12.66,2.08,1.2,3.03,1.77,1.04.62,1.36,1.56.84,2.4-.51.82-1.42.95-2.45.37-.96-.55-1.93-1.1-3.04-1.73.2.78.38,1.4.51,2.03.2.93-.26,1.7-1.14,1.95-.85.24-1.69-.21-1.95-1.13-.43-1.49-.8-3-1.22-4.49-.08-.28-.2-.65-.41-.78-1.29-.79-2.61-1.53-4.1-2.38,0,1.71-.02,3.24.02,4.77,0,.23.26.48.44.67,1.04,1.07,2.11,2.11,3.15,3.18.78.8.84,1.72.19,2.4-.68.72-1.62.68-2.46-.13-.39-.38-.73-.82-1.1-1.23-.09.05-.18.09-.26.14,0,1.1,0,2.21,0,3.31-.01,1.18-.61,1.91-1.56,1.93-.99.02-1.63-.73-1.64-1.95,0-1.03,0-2.05-.01-3.08,0-.06-.03-.11-.16-.52Z"/>
        </g>
        <path class="cls-1" d="M195.23,117.26c-4.07-1.28-8.81-.68-13.24-.5-8.61.34-17.26,1.91-25.79,1.33-20.98-1.43-40.05-9.23-58.19-19.5-18.24-10.31-37.76-11.03-57.69-7.13-8.21,1.61-13.68,8.29-14.32,15.96-.68,8.12,3.54,15.06,11.74,18.35,2.82,1.13,3.73,2.84,4.08,5.5,1.22,9.41,2.71,18.79,3.77,28.22,1.38,12.34,4.15,24.34,13.56,32.98,3.71,3.4,6.1,6.51,6.06,10.09l-3.14,6.85c-1.6,3.5-.05,7.68,3.45,9.28s7.68.05,9.28-3.45l4.15-9.06c.24-.07.47-.11.69-.09l36.23,1.83c9.66,0,19.32.18,28.97-.1,0,0,6.8-.32,10.26.27l3.94,8.59c1.6,3.5,5.78,5.05,9.28,3.45h0c3.5-1.6,5.05-5.78,3.45-9.28l-4.82-10.53s-.03-.05-.04-.07c.17-1.21.93-2.33,2.42-3.54,7.58-6.13,12.45-14.19,15.22-23.55,1.55-5.26,3.41-10.44,4.82-15.74.97-3.66,2.76-5.79,6.48-7.29,7.34-2.96,11.09-8.98,10.87-16.91-.22-7.72-4.13-13.62-11.47-15.93ZM151.3,193.59c-4.26,1.6-9.04,3.4-13.61,3.52l-38.98-.73c-18.44,1.11-38.09-9.75-40.85-35.63-1.08-10.1-2.52-20.16-4.02-30.2-.53-3.51.52-4.88,4.06-5.01,8.33-.31,16.19,1.05,23.55,5.24,25.14,14.31,51.91,23.18,81.06,23.88,4.64.11,9.28.02,14.65.02-3.71,16.49-8.1,32.26-25.86,38.93ZM186.6,140.38c-4.76.79-9.55,1.41-14.34,1.96-2.64.3-5.32.3-7.98.44-26.58-.56-51.27-8.01-74.17-21.11-12.77-7.31-26.03-9.64-40.35-7.35-1.97.31-4.27,1.01-5.9.31-2.17-.93-5.03-2.83-5.38-4.72-.34-1.85,1.86-4.41,3.41-6.28.67-.81,2.47-.73,3.77-.95,18.59-3.2,35.76-.09,52.33,9.47,18.17,10.49,38,17.09,59.15,18.17,8.56.44,17.21-.93,25.82-1.49.49-.03.97-.22,1.46-.31,6.01-1.1,9.46.34,10.2,4.25.71,3.78-2.19,6.63-8.02,7.6Z"/>
      </g>
    </g>
  </g>
</svg>