<?xml version="1.0" encoding="UTF-8"?>
<svg xmlns="http://www.w3.org/2000/svg" version="1.1" viewBox="0 0 242.22 257.78">
  <defs>
    <style>
      .cls-1 {
        fill: #0a0a0a;
        stroke-linejoin: round;
        stroke-width: 4px;
      }

      .cls-1, .cls-2 {
        stroke: #000449;
      }

      .cls-2 {
        fill: none;
        stroke-linecap: round;
        stroke-miterlimit: 10;
        stroke-width: 12px;
      }

      .cls-3 {
        fill: #000449;
      }
    </style>
  </defs>
  <!-- Generator: Adobe Illustrator 28.6.0, SVG Export Plug-In . SVG Version: 1.2.0 Build 709)  -->
  <g>
    <g id="Layer_1">
      <g>
        <path class="cls-2" d="M201.57,114.33v71.75c0,8.76-7.95,15.86-17.75,15.86H54.4c-9.8,0-17.75-7.1-17.75-15.86v-71.75"/>
        <g>
          <path class="cls-3" d="M58.22,153.9h20.72c5.8,0,10.51,4.71,10.51,10.51v18.21c0,2.04-1.66,3.7-3.7,3.7h-34.34c-2.04,0-3.7-1.66-3.7-3.7v-18.21c0-5.8,4.71-10.51,10.51-10.51Z"/>
          <path class="cls-3" d="M109.4,153.9h20.72c5.8,0,10.51,4.71,10.51,10.51v18.21c0,2.04-1.66,3.7-3.7,3.7h-34.34c-2.04,0-3.7-1.66-3.7-3.7v-18.21c0-5.8,4.71-10.51,10.51-10.51Z"/>
          <path class="cls-3" d="M160.27,153.9h20.72c5.8,0,10.51,4.71,10.51,10.51v18.21c0,2.04-1.66,3.7-3.7,3.7h-34.34c-2.04,0-3.7-1.66-3.7-3.7v-18.21c0-5.8,4.71-10.51,10.51-10.51Z"/>
          <path class="cls-3" d="M82.68,119.97h20.72c5.8,0,10.51,4.71,10.51,10.51v18.21c0,2.04-1.66,3.7-3.7,3.7h-34.34c-2.04,0-3.7-1.66-3.7-3.7v-18.21c0-5.8,4.71-10.51,10.51-10.51Z"/>
          <path class="cls-3" d="M135.37,119.56h20.72c5.8,0,10.51,4.71,10.51,10.51v18.21c0,2.04-1.66,3.7-3.7,3.7h-34.34c-2.04,0-3.7-1.66-3.7-3.7v-18.21c0-5.8,4.71-10.51,10.51-10.51Z"/>
          <path class="cls-3" d="M107.36,86.43h20.72c5.8,0,10.51,4.71,10.51,10.51v18.21c0,2.04-1.66,3.7-3.7,3.7h-34.34c-2.04,0-3.7-1.66-3.7-3.7v-18.21c0-5.8,4.71-10.51,10.51-10.51Z"/>
        </g>
        <g>
          <path class="cls-1" d="M94.32,65.36c-.48-10.18,8.6-19.68,19.57-20.76,11.03-1.09,20.83,4.3,22.55,13.09-6.07-8.33-14.16-11.56-24.16-9.48-9.95,2.07-14.99,8.82-17.96,17.15Z"/>
          <path class="cls-1" d="M132.77,64.35c5.76-6.04,14.81-7.6,22.35-4.29,8.32,3.65,12.03,11.03,9.69,20.06-1.2-6.78-3.57-12.9-10.64-16.48-7.02-3.55-13.95-2.44-21.39.71Z"/>
          <path class="cls-1" d="M88.51,80.44c-5.91-3.47-12.14-4.99-18.24-1.06-6.92,4.46-7.11,11-5.47,17.88-3.97-4.19-4.52-8.95-2.56-13.9,2.14-5.41,6.56-8.67,12.97-9.11,5.65-.38,10.22,1.67,13.3,6.2Z"/>
          <path class="cls-1" d="M170.97,84.39c8.04,1.66,13.76,10.82,12.27,19.64-1.41,8.33-9.66,14.43-18.39,13.6,17.04-3.88,21.75-21.99,6.12-33.24Z"/>
          <path class="cls-1" d="M67.87,123.57c-7.22.5-13.28-3.35-15.28-9.7-2.06-6.55,1.04-13.19,8.44-16.5-4.18,5-6.95,9.66-5.17,15.43,1.75,5.67,5.94,9.04,11.99,10.77,0,0,.02,0,.02,0Z"/>
          <path class="cls-1" d="M77.63,71.99c-3.2-4.83-2.43-9.1,1.63-12.71,4.22-3.75,9.63-4.48,14.9-1.67-4.99-.44-9.27-.02-12.76,2.92-3.46,2.92-4.37,6.59-3.78,11.45Z"/>
        </g>
      </g>
    </g>
  </g>
</svg>