<?xml version="1.0" encoding="UTF-8"?>
<svg xmlns="http://www.w3.org/2000/svg" version="1.1" viewBox="0 0 242.22 257.78">
  <defs>
    <style>
      .cls-1 {
        fill: none;
        stroke: #000449;
        stroke-linejoin: round;
        stroke-width: 9px;
      }
    </style>
  </defs>
  <!-- Generator: Adobe Illustrator 28.6.0, SVG Export Plug-In . SVG Version: 1.2.0 Build 709)  -->
  <g>
    <g id="Layer_1">
      <g>
        <path class="cls-1" d="M118.68,77.27c-7.34-7.67-14.86-15.17-22.51-22.53-6.84-6.58-12.74-6.65-19.62-.11-7.69,7.32-15.2,14.84-22.53,22.52-5.98,6.27-6.06,13.53-.69,18.55,5.24,4.89,11.87,4.55,17.97-1.41,2.17-2.12,4.25-4.33,6.4-6.67v42.65c0,4.05,3.31,7.37,7.37,7.37h2.59c4.05,0,7.37-3.31,7.37-7.37v-42.34c2.09,2.24,4.12,4.36,6.22,6.39,6.12,5.94,12.81,6.3,17.96,1.45,5.57-5.25,5.55-12.15-.53-18.5Z"/>
        <path class="cls-1" d="M184.75,161.62c-7.34,7.67-14.86,15.17-22.51,22.53-6.84,6.58-12.74,6.65-19.62.11-7.69-7.32-15.2-14.84-22.53-22.52-5.98-6.27-6.06-13.53-.69-18.55,5.24-4.89,11.87-4.55,17.97,1.41,2.17,2.12,4.25,4.33,6.4,6.67v-42.65c0-4.05,3.31-7.37,7.37-7.37h2.59c4.05,0,7.37,3.31,7.37,7.37v42.34c2.09-2.24,4.12-4.36,6.22-6.39,6.12-5.94,12.81-6.3,17.96-1.45,5.57,5.25,5.55,12.15-.53,18.5Z"/>
      </g>
    </g>
  </g>
</svg>