<?xml version="1.0" encoding="UTF-8"?>
<svg xmlns="http://www.w3.org/2000/svg" version="1.1" viewBox="0 0 242.22 257.78">
  <defs>
    <style>
      .cls-1 {
        fill: #000449;
        stroke: #000449;
        stroke-linejoin: round;
        stroke-width: 2px;
      }
    </style>
  </defs>
  <!-- Generator: Adobe Illustrator 28.6.0, SVG Export Plug-In . SVG Version: 1.2.0 Build 709)  -->
  <g>
    <g id="Layer_1">
      <g>
        <path class="cls-1" d="M172.22,196.65c1.82,0,3.56-.01,5.31,0,1.18.01,2.08.54,2.6,1.58.5,1,.41,2.01-.26,2.92-.63.86-1.53,1.17-2.58,1.17-4.74,0-9.49,0-14.23,0-32.8,0-65.61,0-98.41,0-2.32,0-3.76-1.51-3.3-3.47.29-1.23,1.3-2.1,2.59-2.19.43-.03.87-.01,1.31-.01,20.7,0,41.39,0,62.09,0,.31,0,.62,0,.75,0,0-1.3-.12-2.5.02-3.67.33-2.81,1.87-4.88,4.39-6.22.52-.28.68-.58.68-1.13-.03-2.4,0-4.81-.02-7.21,0-.38-.06-.82-.26-1.14-1.8-2.87-3.63-5.72-5.5-8.64-2.42,1.21-5.02,1.65-7.73.69-2.71-.96-4.39-2.91-5.38-5.57-.57.15-1.11.32-1.67.43-5.5,1.04-10.35-2.96-10.45-8.63-.02-1.2,0-2.39,0-3.56-1.22.1-2.38.35-3.51.27-4.72-.33-8.14-4.03-8.19-8.76-.03-2.92,0-5.83,0-8.75-.08-.06-.16-.12-.24-.18-.08.16-.14.34-.24.49-1.25,1.86-2.49,3.73-3.77,5.57-.32.47-.31.82-.08,1.32,1.78,3.71.85,8.08-2.24,10.73-3.16,2.71-7.65,3.06-11.18.78-7.27-4.7-14.53-9.42-21.74-14.2-3.34-2.21-4.72-5.43-3.95-9.31.77-3.88,3.29-6.28,7.21-7.18.73-.17,1.51-.21,2.25-.16.62.04.91-.2,1.26-.66,4.82-6.38,8.12-13.6,11.71-20.65,3.8-7.47,7.56-14.96,11.39-22.41,2.46-4.78,6.32-7.98,11.52-9.61.78-.24,1.54-.53,2.33-.73.61-.15.81-.45.8-1.08-.03-4.44-.02-8.87-.01-13.31,0-2.18,1.11-3.27,3.32-3.28,13.65,0,27.3,0,40.95,0,2.18,0,3.28,1.08,3.29,3.22,0,9.93,0,19.86,0,29.79,0,.67.17,1.17.65,1.67,2.88,2.99,5.72,6.03,8.58,9.03,3.9,4.09,5.88,8.94,5.82,14.55-.01,1.01.26,1.78.9,2.56,2.99,3.66,5.86,7.41,8.88,11.04,3.91,4.7,5.21,9.99,4.41,15.97-1.68,12.62-3.29,25.25-4.76,37.9-.36,3.11-.08,6.29-.07,9.44,0,.19.2.46.39.57,3.97,2.37,5.28,5.2,4.45,9.67-.02.08-.01.17-.03.38ZM137.24,127.37c0-.16,0-.47,0-.78,0-4.69-.03-9.39.02-14.08,0-.87-.28-1.2-1.08-1.51-6.12-2.33-9.97-6.47-10.6-13.1-.17-1.76.89-3.12,2.55-3.29,1.69-.17,2.91.92,3.2,2.68.2,1.2.42,2.46.95,3.54,1.53,3.15,4.36,4.63,7.68,5.37,2.46.55,3.07,1.27,3.07,3.78,0,7.04-.06,14.08.06,21.12.02,1.16.59,2.47,1.3,3.44,1.09,1.49,3.21,1.84,4.91,1.16,1.78-.71,3.01-2.58,3-4.56-.02-2.43-.06-4.86-.05-7.3,0-4.52-.05-9.04.08-13.56.13-4.54-1.1-8.51-4.31-11.85-3.22-3.35-6.38-6.75-9.6-10.1-.81-.85-1.18-1.77-1.17-2.93.02-9.27,0-18.54,0-27.82,0-.33,0-.66,0-1h-36.01c0,.36,0,.66,0,.97,0,6.27-.07,12.53.03,18.8.05,3.49-.65,6.75-2.22,9.86-.25.5-.35,1.16-.31,1.72.22,2.97.51,5.93.78,8.89.12,1.3.25,2.59.37,3.88.35-.2.53-.44.69-.69,1.5-2.25,2.98-4.51,4.5-6.75,2.36-3.5,6.49-4.91,10.28-3.56,5.63,2.01,7.66,8.52,4.26,13.62-4.34,6.5-8.74,12.97-12.99,19.54-2.41,3.72-5.45,6.6-9.68,8.16-.6.22-.74.57-.73,1.16.03,3.52,0,7.04.02,10.56,0,.48.02.98.11,1.45.31,1.5,1.62,2.52,3.05,2.4,1.56-.13,2.66-1.25,2.75-2.82.02-.37.01-.74.01-1.12,0-3.81,0-7.61,0-11.42,0-1.26.53-2.23,1.72-2.75,1.11-.48,2.17-.31,3.1.47.83.7.96,1.64.96,2.65-.01,7.73-.01,15.45,0,23.18,0,.54.03,1.09.15,1.62.31,1.32,1.47,2.23,2.74,2.25,1.34.02,2.56-.82,2.89-2.06.12-.46.13-.96.13-1.44,0-8.44,0-16.88.01-25.33,0-.46.01-.92.11-1.36.28-1.25,1.39-2.14,2.68-2.19,1.27-.05,2.49.78,2.84,2,.13.46.14.96.14,1.44,0,8.16,0,16.31,0,24.47,0,2.23-.03,4.46.01,6.7.04,1.97,1.31,3.29,3.07,3.27,2.05-.02,3.46-1.41,3.46-3.4,0-8.01,0-16.03,0-24.04,0-3.18-.02-6.35.02-9.53.02-1.55,1.25-2.69,2.81-2.71,1.54-.03,2.79,1.08,2.93,2.61.03.3,0,.61,0,.78,1.78-.17,3.47-.32,5.32-.49ZM144.05,145.38c.25-.23.41-.38.58-.53,1.09-.92,2.69-.92,3.77-.01,1.09.93,1.4,2.49.55,3.64-1.06,1.43-2.16,2.85-3.4,4.13-1.25,1.29-2.89,1.58-4.59.92-1.71-.65-2.62-1.93-2.74-3.74-.03-.46-.01-.92,0-1.37.02-4.09.06-8.18.05-12.28,0-2.18-1.87-3.51-3.92-2.84-1.4.46-2.24,1.69-2.25,3.32-.06,8.33-.1,16.66-.17,24.98-.02,2.36.61,4.52,1.9,6.5,1.49,2.29,3,4.57,4.41,6.9.39.65.63,1.49.65,2.25.08,2.52.03,5.04.03,7.55,0,.3.03.6.04.9h22.65c0-.43,0-.8,0-1.17.02-4.15-.03-8.28.52-12.42,1.53-11.32,2.86-22.66,4.35-33.98.49-3.74.21-7.29-2.09-10.41-1.91-2.59-3.99-5.06-6-7.59-.06-.08-.16-.13-.39-.31,0,.67,0,1.2,0,1.73,0,3.55.19,7.11-.05,10.64-.41,6-6.05,10.26-12.02,9.31-.62-.1-1.23-.27-1.89-.42v4.27ZM81.45,137.3c.2-.27.36-.47.51-.68,1.44-2.12,2.82-4.27,4.33-6.34.48-.66,1.2-1.25,1.95-1.61,2.46-1.17,4.97-2.24,7.48-3.32,2.17-.94,3.89-2.38,5.18-4.33,4.19-6.29,8.39-12.59,12.58-18.88.54-.81,1.12-1.61,1.61-2.45.87-1.52.38-3.42-1.07-4.31-1.33-.82-3.09-.37-4.12,1.06-.15.21-.29.43-.44.64-2.31,3.47-4.61,6.95-6.94,10.41-1.81,2.68-5.73,2.67-7.34-.09-.48-.83-.64-1.89-.74-2.87-.44-4.21-.79-8.43-1.18-12.65-.13-1.37-.26-2.73-.37-4.1-.13-1.69.45-3.21,1.23-4.67,1.48-2.78,1.45-5.75,1.28-8.8-4.24,1.02-7.43,3.27-9.37,7.06-4.1,8-8.12,16.03-12.23,24.02-2.97,5.79-5.54,11.8-9.48,17.07-.6.8-1.12,1.65-1.71,2.53,6.31,4.12,12.54,8.19,18.86,12.32ZM77.59,149.37c1.62-.08,3.02-1.07,3.49-2.53.48-1.51-.11-3.02-1.6-3.99-7.04-4.61-14.09-9.22-21.14-13.81-.45-.3-.96-.56-1.48-.69-1.62-.4-3.3.44-3.97,1.91-.69,1.52-.22,3.29,1.24,4.25,7.23,4.75,14.47,9.48,21.73,14.18.51.33,1.16.46,1.75.69ZM150.2,191.49c-4.54,0-9.07,0-13.61,0-1.16,0-2.04.42-2.55,1.46-.92,1.85.44,3.71,2.71,3.71,9.02,0,18.03,0,27.05,0,.26,0,.53,0,.78-.05,1.42-.25,2.32-1.47,2.15-2.87-.16-1.32-1.25-2.23-2.74-2.24-4.6-.01-9.19,0-13.79,0Z"/>
        <path class="cls-1" d="M103.94,176.43c-4.98-.18-10.31-3.89-11.97-8.48-.5-1.39.15-2.92,1.5-3.53,1.36-.61,2.91-.11,3.72,1.16.58.92,1.13,1.88,1.86,2.68,1.93,2.11,4.33,2.73,7.13,1.96.64-.18,1.39-.24,2.04-.11,1.2.25,2.02,1.39,2.05,2.58.04,1.21-.66,2.37-1.86,2.72-1.46.43-2.98.68-4.48,1.01Z"/>
        <path class="cls-1" d="M168.68,99.31c-.09.71-.14,1.42-.28,2.12-.29,1.5-1.66,2.47-3.19,2.31-1.49-.16-2.75-1.49-2.5-2.99.59-3.52-1.35-5.67-3.96-7.49-.98-.69-1.7-1.45-1.69-2.71.03-2.02,2.16-3.36,4.03-2.55,4.05,1.76,7.54,7,7.57,11.31Z"/>
        <path class="cls-1" d="M114.47,79.05c4.06.12,7.56,1.34,10.02,4.68.33.44.57,1.01.67,1.55.22,1.21-.46,2.35-1.58,2.88-1.13.53-2.53.41-3.27-.57-2.27-3.01-5.34-3.07-8.63-2.43-1.29.25-2.38-.04-3.16-1.11-.7-.98-.71-2.03-.12-3.07.46-.81,1.22-1.23,2.1-1.38,1.31-.22,2.64-.36,3.96-.54Z"/>
      </g>
    </g>
  </g>
</svg>