<?xml version="1.0" encoding="UTF-8"?>
<svg xmlns="http://www.w3.org/2000/svg" version="1.1" viewBox="0 0 242.22 257.78">
  <defs>
    <style>
      .cls-1 {
        fill: none;
        stroke: #000449;
        stroke-miterlimit: 10;
        stroke-width: 9px;
      }

      .cls-2 {
        fill: #000449;
      }
    </style>
  </defs>
  <!-- Generator: Adobe Illustrator 28.6.0, SVG Export Plug-In . SVG Version: 1.2.0 Build 709)  -->
  <g>
    <g id="Layer_1">
      <g>
        <path class="cls-2" d="M61.37,164.83v-.62c0-11.61,0-23.22,0-34.83,0-5.09,4.01-9.28,9.08-9.48.39-.01.46-.2.54-.5,2.21-7.71,4.42-15.41,6.64-23.11.62-2.15,1.25-4.3,1.85-6.46.09-.33.23-.46.57-.49,3.42-.34,6.83-.77,10.25-1.03,5.69-.42,11.39-.76,17.09-1.07,2.84-.15,5.69-.19,8.54-.24,7.67-.11,15.33-.03,22.99.42,5.63.33,11.25.8,16.88,1.25,2.03.16,4.05.43,6.08.62.52.05.76.22.92.75,2.79,9.8,5.61,19.58,8.42,29.38.1.35.25.46.62.48,5,.2,9.03,4.41,9.03,9.42,0,11.59,0,23.19,0,34.78v.67h-9.44c0,.27,0,.48,0,.69,0,4.65,0,9.3,0,13.95,0,.42-.11.61-.53.74-4.56,1.45-9.11,1.44-13.65-.05-.38-.12-.47-.3-.47-.68.01-4.65,0-9.3,0-13.95v-.64h-71.37c0,.2,0,.39,0,.59,0,4.67,0,9.34.01,14,0,.43-.13.61-.53.74-4.56,1.43-9.11,1.44-13.65-.07-.37-.12-.48-.29-.48-.68.02-4.65.02-9.3.03-13.95,0-.2,0-.4,0-.64h-9.41ZM165,119.86c-.05-.22-.08-.38-.13-.54-2.29-7.98-4.58-15.96-6.87-23.94-.09-.3-.22-.43-.54-.46-3.39-.29-6.78-.64-10.17-.9-10.02-.75-20.05-1.12-30.09-.93-5.24.1-10.48.23-15.7.52-5.56.32-11.12.85-16.68,1.28-.37.03-.54.15-.65.53-2.18,7.59-4.37,15.18-6.56,22.76-.16.54-.31,1.08-.47,1.66h87.86ZM169.47,138.94c0-5.77-4.6-10.42-10.32-10.44-5.8-.03-10.49,4.64-10.49,10.45,0,5.7,4.69,10.37,10.42,10.37,5.74,0,10.39-4.65,10.39-10.37ZM72.71,138.94c-.05,5.53,4.62,10.32,10.11,10.37,5.88.06,10.64-4.47,10.71-10.17.06-5.89-4.49-10.59-10.32-10.65-5.77-.06-10.44,4.59-10.49,10.45Z"/>
        <rect class="cls-1" x="46.76" y="54.54" width="148.7" height="148.7" rx="27.15" ry="27.15"/>
      </g>
    </g>
  </g>
</svg>