<?xml version="1.0" encoding="UTF-8"?>
<svg xmlns="http://www.w3.org/2000/svg" version="1.1" viewBox="0 0 242.22 257.78">
  <defs>
    <style>
      .cls-1 {
        fill: #000449;
      }
    </style>
  </defs>
  <!-- Generator: Adobe Illustrator 28.6.0, SVG Export Plug-In . SVG Version: 1.2.0 Build 709)  -->
  <g>
    <g id="Layer_1">
      <g>
        <path class="cls-1" d="M102.14,92.95h25.46c0-.54,0-1.02,0-1.5,0-4.18-.03-8.36,0-12.54.06-8.12,5.69-14.41,13.62-15.27,8.53-.92,16.26,5.88,16.45,14.49.04,1.68.03,3.36,0,5.04-.05,2.73-2.11,4.82-4.72,4.82-2.65,0-4.7-2.02-4.78-4.76-.04-1.52.02-3.03-.02-4.55-.08-3.21-2.42-5.6-5.48-5.61-3.05,0-5.45,2.37-5.58,5.54-.02.57,0,1.15,0,1.72,0,24.1,0,48.2,0,72.3v1.73c2.58-1.01,4.58-2.51,6.57-4.09,2.21-1.75,4.42-3.57,6.87-4.92,11.95-6.62,26.93-5,37.14,4.09,4.8,4.27,10.18,6.74,16.65,6.81,2.71.03,4.73,2.26,4.67,4.88-.06,2.69-2.15,4.73-4.96,4.71-8.53-.06-15.91-3.07-22.22-8.77-4.94-4.45-10.75-6.48-17.38-6.03-5.34.37-9.97,2.45-13.95,6.02-7.63,6.87-16.56,9.75-26.75,8.48-6.92-.86-12.87-3.87-18.05-8.52-7.33-6.58-17.34-7.96-26.07-3.5-2.01,1.03-3.89,2.44-5.59,3.95-12.59,11.16-31.53,11.18-43.89-.03-2.72-2.46-2.42-6.41.62-8.08,1.87-1.03,4-.71,5.78.87,3.16,2.81,6.78,4.72,10.95,5.51,7.44,1.4,14.17-.26,19.81-5.29,7.08-6.32,15.18-9.51,24.69-9.07.16,0,.32-.03.61-.06.03-.53.08-1.04.08-1.56,0-20.2,0-40.41,0-60.61,0-5.58,2.18-10.07,6.86-13.12,4.86-3.16,10.05-3.43,15.18-.72,5.11,2.7,7.8,7.1,8.08,12.9.08,1.64.03,3.28,0,4.92-.04,2.75-2.05,4.82-4.68,4.85-2.67.04-4.77-2.06-4.82-4.85-.03-1.47.02-2.95-.01-4.43-.07-3.27-2.45-5.66-5.57-5.64-3.1.02-5.51,2.46-5.53,5.71-.03,4.67,0,9.34,0,14.17ZM127.53,102.65h-25.32v13.43h25.32v-13.43ZM102.22,125.8v13.46h25.3v-13.46h-25.3ZM127.53,148.97h-16.33c4.63,4.6,9.93,7.02,16.33,7.24v-7.24Z"/>
        <path class="cls-1" d="M52.08,206.07c-8.51-.14-15.88-2.96-22.15-8.58-1.55-1.39-2.08-3.14-1.49-5.12.57-1.9,1.93-3.02,3.88-3.34,1.6-.26,2.96.31,4.16,1.38,5.08,4.5,11.02,6.49,17.78,5.88,5.15-.46,9.62-2.54,13.45-5.99,7.52-6.77,16.33-9.67,26.39-8.51,6.88.79,12.88,3.64,18.02,8.26,6.4,5.75,13.78,7.62,22.12,5.52,3.64-.92,6.8-2.79,9.58-5.31,12.82-11.59,31.42-11.71,44.3-.23,4.53,4.04,9.72,6.25,15.81,6.4,3,.07,5.09,2.17,5.03,4.92-.06,2.74-2.27,4.77-5.23,4.71-8.28-.18-15.54-3-21.68-8.57-4.5-4.08-9.75-6.29-15.83-6.32-6.12-.03-11.44,2.13-15.97,6.26-4.82,4.4-10.45,7.21-16.9,8.18-10.44,1.58-19.65-1.19-27.5-8.25-8.36-7.52-20.27-8.3-29.33-1.82-.96.69-1.85,1.49-2.74,2.27-6.25,5.46-13.54,8.15-21.71,8.27Z"/>
        <path class="cls-1" d="M202.94,185.96c-7.86-.39-14.83-3.11-20.71-8.42-5.28-4.77-11.37-7.01-18.47-6.33-5.06.48-9.41,2.56-13.24,5.9-10.6,9.24-22.49,11.3-35.57,6.1-3.3-1.31-6.2-3.32-8.85-5.69-9.66-8.63-22.33-8.64-32.06-.02-12.75,11.3-31.15,11.33-43.96.06-2.2-1.94-2.5-4.91-.7-7,1.79-2.08,4.77-2.19,7.02-.27,9.66,8.26,22.27,8.1,31.7-.41,12.46-11.24,31.51-11.23,43.96.04,9.48,8.58,22.39,8.61,31.96.08,12.8-11.4,31.33-11.45,44.13-.02,4.57,4.08,9.81,6.26,15.93,6.4,2.89.06,4.91,2.16,4.86,4.92-.05,2.67-2.18,4.67-4.98,4.68-.33,0-.66,0-1.03,0Z"/>
      </g>
    </g>
  </g>
</svg>