<?xml version="1.0" encoding="UTF-8"?>
<svg xmlns="http://www.w3.org/2000/svg" version="1.1" viewBox="0 0 242.22 257.78">
  <defs>
    <style>
      .cls-1 {
        fill: #000449;
      }
    </style>
  </defs>
  <!-- Generator: Adobe Illustrator 28.6.0, SVG Export Plug-In . SVG Version: 1.2.0 Build 709)  -->
  <g>
    <g id="Layer_1">
      <g>
        <g>
          <path class="cls-1" d="M30.5,175.27c19.87-21.45,62.15-52.89,92.8-42.01,12.03,3.93,16.59,12.86,20.22,23.95,1.92,5.27,4.36,9.65,9.05,12.82,6.52,4.31,14.36,6.58,22.16,6.96,8.27.26,16.48-2.12,23.77-6.3,3.75-2.17,7.4-4.71,10.71-7.8-2.11,4.03-5,7.69-8.36,10.92-10.44,10.36-26.06,14.8-40.47,11.81-7.66-1.53-15.2-4.43-20.9-10.01-5.49-4.97-8.74-13.69-11.08-19.46-1.41-3.25-2.78-5.71-5.47-7.63-13.33-8.17-30.95-1.95-44.79,3.28-16.35,6.5-32,15.01-47.63,23.47h0Z"/>
          <g>
            <path class="cls-1" d="M38.03,179.61c.77.74.94,2.19.39,3.22-.55,1.04-1.62,1.27-2.39.53s-.94-2.19-.39-3.22,1.62-1.27,2.39-.53Z"/>
            <ellipse class="cls-1" cx="63.81" cy="168.99" rx="1.71" ry="2.31"/>
            <ellipse class="cls-1" cx="40.77" cy="176.44" rx="1.21" ry="1.63"/>
            <ellipse class="cls-1" cx="32.85" cy="182.64" rx=".85" ry="1.15"/>
            <path class="cls-1" d="M51.82,174.85c.77.74.94,2.19.39,3.22s-1.62,1.27-2.39.53-.94-2.19-.39-3.22,1.62-1.27,2.39-.53Z"/>
            <ellipse class="cls-1" cx="54.57" cy="171.67" rx="1.21" ry="1.63"/>
            <ellipse class="cls-1" cx="46.65" cy="177.88" rx=".85" ry="1.15"/>
            <path class="cls-1" d="M58.58,175.98c-.15.83.23,1.66.84,1.85.61.2,1.23-.31,1.37-1.14.15-.83-.23-1.66-.84-1.85s-1.23.31-1.37,1.14Z"/>
            <path class="cls-1" d="M55.61,176.77c.32.42.83.41,1.14-.02s.31-1.12-.01-1.54-.83-.41-1.14.02-.31,1.12.01,1.54Z"/>
            <path class="cls-1" d="M61.76,175.02c.22.3.58.29.8-.01s.22-.79,0-1.08-.58-.29-.8.01-.22.79,0,1.08Z"/>
            <path class="cls-1" d="M72.19,163.93c.77.74.94,2.19.39,3.22s-1.62,1.27-2.39.53c-.77-.74-.94-2.19-.39-3.22.55-1.04,1.62-1.27,2.39-.53Z"/>
            <ellipse class="cls-1" cx="74.93" cy="160.75" rx="1.21" ry="1.63"/>
            <path class="cls-1" d="M78.94,165.06c-.15.83.23,1.66.84,1.85s1.23-.31,1.37-1.14c.15-.83-.23-1.66-.84-1.85s-1.23.31-1.37,1.14Z"/>
            <path class="cls-1" d="M89.33,152.75c-.15.83.23,1.66.84,1.85.61.2,1.23-.31,1.37-1.14.15-.83-.23-1.66-.84-1.85s-1.23.31-1.37,1.14Z"/>
            <path class="cls-1" d="M95,151.21c-.15.83.23,1.66.84,1.85.61.2,1.23-.31,1.37-1.14s-.23-1.66-.84-1.85-1.23.31-1.37,1.14Z"/>
            <path class="cls-1" d="M75.97,165.84c.32.42.83.41,1.14-.02s.31-1.12-.01-1.54-.83-.41-1.14.02-.31,1.12.01,1.54Z"/>
            <path class="cls-1" d="M82.12,164.09c.22.3.58.29.8-.01s.22-.79,0-1.08-.58-.29-.8.01-.22.79,0,1.08Z"/>
            <ellipse class="cls-1" cx="60.71" cy="167.49" rx=".85" ry="1.15"/>
            <ellipse class="cls-1" cx="78.14" cy="159.12" rx=".85" ry="1.15"/>
            <ellipse class="cls-1" cx="84.93" cy="156.26" rx=".85" ry="1.15"/>
            <ellipse class="cls-1" cx="49.22" cy="171.67" rx=".85" ry="1.15"/>
          </g>
          <g>
            <ellipse class="cls-1" cx="172.77" cy="192.85" rx="1.22" ry="1.64"/>
            <ellipse class="cls-1" cx="192.33" cy="187.8" rx="1.22" ry="1.64"/>
            <ellipse class="cls-1" cx="130.78" cy="174.37" rx="1.22" ry="1.64"/>
            <ellipse class="cls-1" cx="127.23" cy="169.58" rx="1.17" ry="1.58"/>
            <path class="cls-1" d="M183.76,190.14c.81.67,1.07,2.1.57,3.19s-1.55,1.44-2.37.77-1.07-2.1-.57-3.19c.5-1.09,1.55-1.44,2.37-.77Z"/>
            <ellipse class="cls-1" cx="178.74" cy="193.7" rx=".86" ry="1.16"/>
            <path class="cls-1" d="M156.08,191.11c.77.75.95,2.2.39,3.24s-1.63,1.28-2.4.53c-.77-.75-.95-2.2-.39-3.24s1.63-1.28,2.4-.53Z"/>
            <ellipse class="cls-1" cx="158.84" cy="187.92" rx="1.22" ry="1.64"/>
            <path class="cls-1" d="M162.87,192.25c-.15.83.23,1.66.85,1.86s1.23-.31,1.38-1.14-.23-1.66-.85-1.86-1.23.31-1.38,1.14Z"/>
            <path class="cls-1" d="M159.88,193.04c.32.42.83.42,1.15-.02s.31-1.12-.01-1.55-.83-.42-1.15.02-.31,1.12.01,1.55Z"/>
            <path class="cls-1" d="M166.07,191.28c.23.3.59.29.81-.01s.22-.79,0-1.09-.59-.29-.81.01-.22.79,0,1.09Z"/>
            <ellipse class="cls-1" cx="162.07" cy="186.28" rx=".86" ry="1.16"/>
            <path class="cls-1" d="M150.57,188.51c-.61.98-1.7,1.11-2.42.28-.73-.83-.82-2.29-.21-3.27s1.7-1.11,2.42-.28c.73.83.82,2.29.21,3.27Z"/>
            <path class="cls-1" d="M136.9,182.42c.31,1.21-.17,2.53-1.07,2.95s-1.88-.23-2.19-1.44c-.31-1.21.17-2.53,1.07-2.95s1.88.23,2.19,1.44Z"/>
            <path class="cls-1" d="M141.45,183.03c-.43.69-1.2.78-1.71.2s-.58-1.62-.15-2.31,1.2-.78,1.71-.2.58,1.62.15,2.31Z"/>
            <path class="cls-1" d="M141.95,188.65c-.48.56-.52,1.54-.11,2.18.42.64,1.14.71,1.62.15.48-.56.52-1.54.11-2.18-.42-.64-1.14-.71-1.62-.15Z"/>
            <ellipse class="cls-1" cx="139.97" cy="186.77" rx=".81" ry="1.09"/>
            <ellipse class="cls-1" cx="145.54" cy="190.22" rx=".57" ry=".77"/>
            <ellipse class="cls-1" cx="196.32" cy="185.51" rx=".57" ry=".77"/>
            <path class="cls-1" d="M136.79,178.52c-.31.49-.85.55-1.21.14s-.41-1.14-.1-1.63.85-.55,1.21-.14.41,1.14.1,1.63Z"/>
          </g>
        </g>
        <path class="cls-1" d="M116.27,144.82c0-21.04.67-44.98.68-66.02,0-5.81-2.27-10.49-7.14-13.66-5.06-3.29-10.47-3.57-15.8-.75-5.32,2.81-8.12,7.39-8.41,13.43-.08,1.7-.03,3.41,0,5.12.04,2.86,2.13,5.02,4.87,5.05,2.78.04,4.96-2.15,5.02-5.05.03-1.54-.02-3.07.02-4.61.08-3.41,2.55-5.89,5.8-5.87,3.23.02,5.74,2.56,5.76,5.95.03,4.86,0,9.72,0,14.75h-26.51c0-.56,0-1.06,0-1.56,0-4.35.03-8.71,0-13.06-.07-8.46-5.93-15.01-14.18-15.89-8.89-.95-16.93,6.12-17.13,15.08-.04,1.75-.03,3.5,0,5.25.05,2.85,2.2,5.02,4.91,5.02,2.76,0,4.89-2.1,4.98-4.96.05-1.58-.02-3.16.02-4.74.08-3.35,2.52-5.83,5.71-5.84,3.18-.01,5.68,2.47,5.81,5.77.02.6,0,1.19,0,1.79,0,25.09,0,40.12,0,65.21l45.59-.41ZM80.62,101.38h26.36v13.99h-26.36v-13.99ZM106.98,125.49v14.02h-26.34v-14.02h26.34Z"/>
      </g>
    </g>
  </g>
</svg>