<?xml version="1.0" encoding="UTF-8"?>
<svg xmlns="http://www.w3.org/2000/svg" version="1.1" viewBox="0 0 242.22 257.78">
  <defs>
    <style>
      .cls-1 {
        stroke: #000;
      }

      .cls-1, .cls-2, .cls-3, .cls-4 {
        stroke-miterlimit: 10;
        stroke-width: 3px;
      }

      .cls-2, .cls-3, .cls-4 {
        stroke: #000449;
      }

      .cls-5, .cls-4 {
        fill: #000449;
      }

      .cls-3 {
        fill: none;
      }
    </style>
  </defs>
  <!-- Generator: Adobe Illustrator 28.6.0, SVG Export Plug-In . SVG Version: 1.2.0 Build 709)  -->
  <g>
    <g id="Layer_1">
      <g>
        <path class="cls-5" d="M130.33,74.43c-.06-8.38,7.05-15.58,15.75-15.45,8.21.13,15.25,7.1,15.18,15.55-.07,8.42-7.05,15.44-15.63,15.38-8.28-.05-15.41-7.1-15.3-15.48ZM156.09,74.47c0-5.67-4.6-10.44-10.59-10.32-5.4.12-9.99,4.59-10.03,10.25-.04,5.61,4.61,10.44,10.56,10.36,5.32-.08,10.15-4.75,10.06-10.29Z"/>
        <path class="cls-5" d="M161.27,58.93c-.02-5.61,4.66-10.41,10.64-10.26,5.37.14,10.01,4.68,9.97,10.37-.03,5.58-4.69,10.4-10.68,10.24-5.18-.14-10.06-4.72-9.93-10.35ZM176.7,59.01c.24-2.73-2.58-5.22-5.12-5.21-2.57.01-5.14,2.41-5.17,5.14-.04,2.69,2.58,5.21,5.17,5.21,2.52,0,5.32-2.44,5.13-5.14Z"/>
        <path class="cls-5" d="M171.57,102.8c-5.32.13-10.19-4.59-10.31-9.93-.13-5.92,4.56-10.56,10.15-10.67,5.69-.11,10.35,4.58,10.48,10.05.14,5.77-4.56,10.54-10.32,10.55ZM176.71,92.51c.16-2.82-2.59-5.14-5.04-5.16-2.6-.03-5.27,2.31-5.26,5.19.02,2.79,2.63,5.17,5.25,5.13,2.44-.03,5.21-2.35,5.04-5.16Z"/>
        <path class="cls-5" d="M156.47,157.03c5.24,0,10.49-.1,15.72.04,2.56.07,4.59,1.42,5.95,3.69.85,1.41,1.2,2.91,1.19,4.56-.03,4.94-.05,9.87.01,14.81.02,1.45-1.4,2.66-2.63,2.65-1.19,0-2.6-1.19-2.58-2.62.06-5.01,0-10.01.03-15.02,0-1.14-.37-2.01-1.34-2.6-.27-.16-.59-.29-.9-.33-.46-.06-.94-.05-1.41-.05-9.75,0-19.51,0-29.26,0-.77,0-1.52.02-2.2-.53-.75-.62-1.17-1.73-.91-2.78.23-.89,1.2-1.76,2.11-1.82.77-.05,1.55-.04,2.33-.04,4.63,0,9.26,0,13.89,0,0,.02,0,.03,0,.05Z"/>
        <path class="cls-5" d="M140.22,193.07c-5.15,0-10.3.06-15.44-.03-2.66-.05-4.71-1.39-6.14-3.64-.87-1.36-1.25-2.85-1.24-4.47.03-4.98.05-9.97-.01-14.95-.02-1.47,1.39-2.82,2.9-2.64,1.1.13,2.14,1.06,2.26,2.17.04.35.03.7.03,1.06,0,4.73.07,9.45-.03,14.18-.04,1.97,1.2,3.24,3.24,3.22,9.73-.05,19.47-.02,29.2-.02.52,0,1.04-.01,1.55.04,1.64.16,2.64,2.3,1.81,3.73-.57.97-1.35,1.4-2.47,1.4-5.22-.02-10.44,0-15.66,0,0,0,0-.02,0-.02Z"/>
        <path class="cls-5" d="M166.41,193.07c-1.36,0-2.57-1.18-2.57-2.53,0-1.38,1.21-2.51,2.59-2.6,1.28-.09,2.58,1.51,2.6,2.55.02,1.1-1.33,2.77-2.61,2.58Z"/>
        <path class="cls-5" d="M130.32,162.13c-1.38,0-2.58-1.17-2.59-2.52-.01-1.4,1.18-2.51,2.6-2.6,1.29-.08,2.62,1.5,2.57,2.57-.07,1.35-1.22,2.56-2.57,2.56Z"/>
        <line class="cls-1" x1="54.72" y1="186.01" x2="54.76" y2="202.39"/>
        <path class="cls-4" d="M195.58,165.15c0-2.46.22-4.94-.63-7.33-.56-1.58-1-3.23-1.75-4.72-1.1-2.17-2.69-4-4.53-5.64-2.12-1.89-4.57-3.1-7.2-3.94-2.02-.65-4.14-.86-6.3-.85-13.43.04-26.86.02-40.29.02q-1.27,0-1.27-1.3c0-4.83,0-9.66-.04-14.48,0-.97-.08-1.95-.25-2.91-.32-1.86-.65-3.73-1.13-5.56-.44-1.7-.98-3.4-1.66-5.01-.71-1.68-1.52-3.35-2.51-4.89-1.42-2.21-2.89-4.42-4.62-6.38-1.61-1.82-3.53-3.39-5.43-4.93-1.36-1.11-2.86-2.07-4.37-2.97-1.11-.66-2.34-1.14-3.53-1.68-.79-.36-.87-.74-.49-1.5.51-1,1.09-2.01,1.32-3.08.46-2.13.05-4.16-1.13-6.03-1.46-2.32-3.55-3.63-6.24-3.99-.67-.09-.93-.32-.92-1.01.03-2.13,0-4.26,0-6.39,0-1.07.05-1.11,1.15-1.11,4.75,0,9.5,0,14.25,0,1.46,0,2.93.02,4.39-.03,1.48-.06,2.7-1.25,2.72-2.7.03-3.83.02-7.65,0-11.48,0-.41-.18-.85-.39-1.21-.66-1.19-1.74-1.5-3.05-1.5-12.66.02-25.32.01-37.98.01-.31,0-.62,0-.92.02-1.48.11-2.66,1.27-2.67,2.75-.03,3.75-.04,7.5,0,11.25.01,1.68,1.18,2.8,2.87,2.87.67.03,1.34.03,2,.02.52,0,.75.22.74.74,0,2.34.01,4.67-.04,7.01,0,.24-.37.68-.59.69-1.4.1-2.62.64-3.8,1.34-2.24,1.33-3.49,3.35-3.94,5.85-.39,2.19.21,4.21,1.42,6.06.4.62.27,1.04-.4,1.38-1.43.73-2.94,1.34-4.27,2.21-2.2,1.43-4.44,2.86-6.38,4.61-1.92,1.73-3.6,3.78-5.19,5.83-1.28,1.64-2.36,3.46-3.36,5.29-.86,1.58-1.55,3.27-2.19,4.96-.46,1.21-.78,2.49-1.02,3.76-.45,2.41-.86,4.83-1.17,7.26-.15,1.21-.06,2.46-.06,3.69,0,18.62,0,37.24,0,55.86,0,.39-.04.78-.07,1.26l-.03,14.76c.05.13.1.24.14.36.41,1.43,1.41,2.22,2.9,2.28.46.02.92.01,1.39.01,38.47,0,76.94,0,115.41,0,.92,0,1.85.01,2.77-.04,2.25-.12,4.41-.7,6.46-1.59,2.5-1.08,4.69-2.64,6.58-4.66,2.09-2.24,3.59-4.81,4.46-7.69.57-1.89.9-3.88.88-5.91-.06-6.55-.01-13.1-.03-19.65ZM54.88,195.04v-1.99c.04.63,0,1.28,0,1.99ZM85.71,62.76v-.02c-.95-.44-1.61-1.39-1.61-2.5,0-1.52,1.24-2.76,2.76-2.76h31.33c1.52,0,2.76,1.24,2.76,2.76,0,1.04-.59,1.95-1.45,2.42,0,.13,0,.26,0,.4,0,.51-.21.76-.74.76M91.35,70.34c-.01-.61.2-.9.84-.88,1.33.02,2.66.02,4,0,.54,0,.79.21.79.77-.01,2.31,0,4.61,0,6.92,0,.5-.2.77-.73.76-1.38,0-2.77,0-4.15,0-.57,0-.76-.28-.75-.81.02-1.15,0-2.31,0-3.46,0-1.1.02-2.2,0-3.3ZM85.76,83.55c2.82-.03,5.65,0,8.47,0h0c2.77,0,5.55.02,8.32-.01,1.58-.02,2.86,1.4,2.87,2.81.02,1.41-1.28,2.86-2.83,2.85-3.36-.04-6.73,0-10.09,0-2.26,0-4.52.02-6.78-.02-1.59-.02-2.83-1.33-2.81-2.86.02-1.5,1.26-2.73,2.84-2.75ZM60.45,126.92c.02-2.3.59-4.62,1.1-6.88.4-1.78.97-3.56,1.73-5.21.84-1.85,1.9-3.61,3.01-5.31,1.67-2.56,3.76-4.79,6.11-6.75,1.35-1.13,2.84-2.09,4.32-3.04,1.11-.72,2.26-1.4,3.47-1.91,1.52-.64,3.11-1.16,4.7-1.62,1.47-.43,2.97-.74,4.48-1.04.83-.16,1.68-.25,2.52-.26,1.95-.02,3.91-.09,5.85.1,1.69.17,3.36.64,5.02,1.03,1.04.25,2.09.53,3.08.92,1.37.54,2.73,1.12,4.03,1.81,1.35.71,2.67,1.51,3.92,2.37,2.46,1.69,4.6,3.75,6.46,6.08,1.18,1.47,2.31,3.01,3.23,4.65.96,1.72,1.64,3.6,2.45,5.41,1,2.22,1.3,4.62,1.75,6.98.15.78.23,1.58.24,2.37.03,5.01.04,10.01.05,15.02,0,1.02-.06,1.1-1.11,1.06-2.4-.09-4.79.04-7.08.78-1.49.48-2.92,1.19-4.34,1.87-2.13,1.03-3.87,2.59-5.33,4.41-.97,1.21-1.82,2.53-2.55,3.9-1.74,3.24-2.27,6.76-2.13,10.4.04,1.14-.03,1.18-1.16,1.18-7.11,0-14.22,0-21.34,0-7.11,0-14.22,0-21.34,0-1.21,0-1.23-.01-1.23-1.18.01-12.38-.03-24.75.09-37.13ZM61.51,170.88c7.14,0,14.28,0,21.42,0,7.11,0,14.23,0,21.34,0,1.14,0,1.16.02,1.16,1.17,0,3.95,0,7.91,0,11.86,0,.97-.07,1.04-1.06,1.04-14.3,0-28.61,0-42.91,0-1.03,0-1.09-.06-1.09-1.09,0-3.95,0-7.91,0-11.86,0-1.07.05-1.12,1.14-1.12ZM109.89,199.04c-2.72.01-5.44.01-8.16.01-13.32,0-26.65,0-39.97,0q-1.38,0-1.38-1.41c0-1.98,0-3.95,0-5.93,0-1.04.06-1.1,1.08-1.1,13.74,0,27.47,0,41.21,0,.82,0,1.65.05,2.46-.02.82-.07,1.28.31,1.51,1.01.89,2.69,2.41,4.99,4.53,7.27-.56.08-.91.17-1.27.17ZM189.09,189.81c-.82,2.12-2.01,4.04-3.79,5.58-2.95,2.54-6.32,3.69-10.21,3.68-16.38-.04-32.76-.04-49.14,0-1.96,0-3.85-.27-5.66-.9-1.79-.63-3.39-1.67-4.79-2.97-1.37-1.27-2.36-2.78-3.14-4.48-.92-2.02-1.29-4.11-1.28-6.31.03-7.14.04-14.28,0-21.41-.01-1.85.19-3.65.83-5.35.97-2.6,2.55-4.81,4.82-6.49,1.76-1.31,3.74-2.09,5.83-2.61.64-.16,1.32-.18,1.99-.18,8.65-.01,17.31,0,25.96,0h0c8.58,0,17.15-.01,25.73,0,2.38,0,4.55.73,6.63,1.89,2.41,1.34,4.21,3.24,5.47,5.63.82,1.56,1.4,3.23,1.55,5.01.05.61.07,1.23.07,1.85,0,7.32-.02,14.64.02,21.95.01,1.78-.24,3.51-.87,5.12Z"/>
        <line class="cls-2" x1="85.12" y1="63.06" x2="122.62" y2="63.06"/>
        <line class="cls-3" x1="109.83" y1="53.8" x2="109.83" y2="69.29"/>
      </g>
    </g>
  </g>
</svg>