<?xml version="1.0" encoding="UTF-8"?>
<svg xmlns="http://www.w3.org/2000/svg" version="1.1" viewBox="0 0 242.22 257.78">
  <defs>
    <style>
      .cls-1 {
        fill: #000449;
      }

      .cls-2 {
        fill: none;
        stroke: #000449;
        stroke-miterlimit: 10;
        stroke-width: 7px;
      }
    </style>
  </defs>
  <!-- Generator: Adobe Illustrator 28.6.0, SVG Export Plug-In . SVG Version: 1.2.0 Build 709)  -->
  <g>
    <g id="Layer_1">
      <path class="cls-2" d="M188.11,91.84c-.59.13-1.01.67-1.01,1.28,0,5.39,0,10.62,0,15.85,0,8.92.11,17.84-.05,26.75-.06,3.31.89,4.94,4.13,4.54,2.79-.35,4.18.51,4.09,3.97-.08,3.19-1,4.58-4.01,4.1-3.23-.51-4.35,1.04-4.2,4.39.18,4.02-.87,8.36.21,12.02,3.82,12.95.74,26.11,1.87,39.09.35,3.98-.99,5.14-4.72,5.13-42.1-.12-84.21-.12-126.31,0-3.86.01-5.16-1.17-5.05-5.37.26-10.21-.07-20.43.14-30.63.13-6.1,1-12.19,1.21-18.29.21-5.98.33-6.33-5.33-6.08-.27.01-.54-.04-.86-.11-.58-.14-.99-.66-.99-1.26v-5.09c0-.68.52-1.24,1.2-1.29l4.61-.36c.63-.05,1.13-.55,1.19-1.18.1-1.11.21-2.16.21-3.21.03-13.38,0-26.75.04-40.13,0-2.45.03-4.27-3.21-4.64-3.41-.39-5.37-3.4-5.56-6.99-.28-5.31-.3-10.65-.03-15.95.06-1.1,1.71-2.74,2.87-3.03,18.61-4.78,37.26-9.38,55.89-14.02,1.58-.39,3.23-.58,4.7-1.25,10.26-4.64,20.11-.93,30.03,1.52,17.46,4.31,34.9,8.74,52.4,12.89,3.76.89,5.56,2.45,5.05,6.81-.38,3.26,0,6.61-.1,9.91-.17,6.32-2.42,9.35-8.43,10.64ZM63.42,90.01c-.84-.51-1.92.09-1.93,1.07h0c-.02,15.54.04,31.08-.06,46.61-.02,3.2,1.6,3.37,3.86,3.36,36.98-.03,73.97-.05,110.95.04,3.23,0,4.16-1.16,4.12-4.52-.14-14.24-.05-28.49-.07-42.73,0-.61-.06-1.22-.13-1.76-.09-.73-.77-1.23-1.5-1.12-2.41.39-4.61,1-6.48.42-1.76-.54-3.21-2.2-4.72-3.67-.55-.54-1.45-.47-1.93.14-4.39,5.6-7.24,5.62-13.14,0-.52-.5-1.36-.47-1.85.05-5.3,5.65-7.53,5.57-12.89.23-.44-.44-1.11-.51-1.64-.18-2.53,1.6-4.85,3.68-7.13,3.64-2.43-.04-4.82-2.11-6.85-3.39-.41-.26-.92-.28-1.34-.04-2.29,1.37-4.72,3.49-7.07,3.4-2.42-.09-4.78-2.16-6.65-3.4-.41-.27-.94-.3-1.36-.04-2.35,1.41-4.75,3.54-7.08,3.46-2.4-.08-4.75-2.15-6.69-3.42-.41-.27-.94-.3-1.36-.04-2.32,1.4-4.74,3.54-7.09,3.46-2.4-.08-4.75-2.08-7.16-3.62-.57-.36-1.33-.24-1.74.3-3.19,4.22-6.06,4.8-11.09,1.74ZM61.77,166.34c0,.72.59,1.3,1.31,1.3,1.35,0,3.56,0,4.77,0,16.58,0,32.17,0,48.75,0,19.69,0,38.37-.07,58.06.06,3.32.02,4.72-1.02,4.44-4.71,0,0,.73-6.26,1.02-9.38.38-4.15-1-8.4-4.94-8.38-36.4.16-72.81.1-109.21.11-.93,0-1.86,0-2.88,0-.72,0-2.31.58-2.31,1.3l1,19.7Z"/>
      <rect class="cls-1" x="48.04" y="139.57" width="145.7" height="8.75" rx="4.38" ry="4.38"/>
      <rect class="cls-1" x="56.21" y="132.42" width="3.57" height="15.57" rx="1.79" ry="1.79"/>
      <rect class="cls-1" x="182.6" y="135.23" width="4.49" height="18.63" rx="2.24" ry="2.24"/>
    </g>
  </g>
</svg>