<?xml version="1.0" encoding="UTF-8"?>
<svg xmlns="http://www.w3.org/2000/svg" version="1.1" viewBox="0 0 242.22 257.78">
  <defs>
    <style>
      .cls-1 {
        fill: none;
        stroke: #000449;
        stroke-linecap: round;
        stroke-miterlimit: 10;
        stroke-width: 12px;
      }

      .cls-2 {
        fill: #000449;
      }
    </style>
  </defs>
  <!-- Generator: Adobe Illustrator 28.6.0, SVG Export Plug-In . SVG Version: 1.2.0 Build 709)  -->
  <g>
    <g id="Layer_1">
      <g>
        <g>
          <path class="cls-2" d="M163.12,55.47c.89,1.2,1.83,2.47,2.77,3.73-.44.67-.62,1.17-.97,1.45-8.15,6.53-8.23,7.55-1.05,15.62,6.28,7.06,4.49,16.77-4.03,20.83-1.02.48-3.4-.07-3.93-.91-.54-.86-.07-3.19.78-3.98,6.59-6.12,6.73-7.55.65-14.02-7.82-8.32-5.68-17.33,5.78-22.73Z"/>
          <path class="cls-2" d="M123.65,44.81c-.79.69-1.5,1.38-2.27,1.98-6,4.62-6.23,7.42-1.02,12.98,7.47,7.98,6.88,16.51-1.75,21.75-1.17.71-3.28-.11-4.96-.23.45-1.48.43-3.5,1.42-4.37,5.93-5.18,6.11-7.48.48-13.44-7.06-7.48-6.31-15.52,1.72-21.2,3.7-2.61,5.27-1.27,6.38,2.53Z"/>
          <path class="cls-2" d="M84.54,59.7c-.42.51-.68.96-1.06,1.26-7.57,6.01-7.69,7.67-1.07,15,6.39,7.09,5.26,15.77-2.92,20.65-1.14.68-3.59.65-4.54-.13-2.12-1.74-.79-3.3,1.05-4.74,6.09-4.79,6.12-7.36.45-13.31-6.99-7.33-6.17-15.56,1.86-21.19,3.77-2.64,5.26-1.13,6.24,2.47Z"/>
        </g>
        <path class="cls-1" d="M200.88,122.58v71.75c0,8.76-7.95,15.86-17.75,15.86H53.72c-9.8,0-17.75-7.1-17.75-15.86v-71.75"/>
        <g>
          <path class="cls-2" d="M57.53,162.15h20.72c5.8,0,10.51,4.71,10.51,10.51v18.21c0,2.04-1.66,3.7-3.7,3.7h-34.34c-2.04,0-3.7-1.66-3.7-3.7v-18.21c0-5.8,4.71-10.51,10.51-10.51Z"/>
          <path class="cls-2" d="M108.72,162.15h20.72c5.8,0,10.51,4.71,10.51,10.51v18.21c0,2.04-1.66,3.7-3.7,3.7h-34.34c-2.04,0-3.7-1.66-3.7-3.7v-18.21c0-5.8,4.71-10.51,10.51-10.51Z"/>
          <path class="cls-2" d="M159.58,162.15h20.72c5.8,0,10.51,4.71,10.51,10.51v18.21c0,2.04-1.66,3.7-3.7,3.7h-34.34c-2.04,0-3.7-1.66-3.7-3.7v-18.21c0-5.8,4.71-10.51,10.51-10.51Z"/>
          <path class="cls-2" d="M82,128.22h20.72c5.8,0,10.51,4.71,10.51,10.51v18.21c0,2.04-1.66,3.7-3.7,3.7h-34.34c-2.04,0-3.7-1.66-3.7-3.7v-18.21c0-5.8,4.71-10.51,10.51-10.51Z"/>
          <path class="cls-2" d="M134.68,127.81h20.72c5.8,0,10.51,4.71,10.51,10.51v18.21c0,2.04-1.66,3.7-3.7,3.7h-34.34c-2.04,0-3.7-1.66-3.7-3.7v-18.21c0-5.8,4.71-10.51,10.51-10.51Z"/>
          <path class="cls-2" d="M106.68,94.68h20.72c5.8,0,10.51,4.71,10.51,10.51v18.21c0,2.04-1.66,3.7-3.7,3.7h-34.34c-2.04,0-3.7-1.66-3.7-3.7v-18.21c0-5.8,4.71-10.51,10.51-10.51Z"/>
        </g>
      </g>
    </g>
  </g>
</svg>