<?xml version="1.0" encoding="UTF-8"?>
<svg xmlns="http://www.w3.org/2000/svg" version="1.1" viewBox="0 0 242.22 257.78">
  <defs>
    <style>
      .cls-1 {
        fill: #000449;
        stroke: #000449;
        stroke-miterlimit: 10;
        stroke-width: 2px;
      }
    </style>
  </defs>
  <!-- Generator: Adobe Illustrator 28.6.0, SVG Export Plug-In . SVG Version: 1.2.0 Build 709)  -->
  <g>
    <g id="Layer_1">
      <g>
        <path class="cls-1" d="M77.5,199.42c-2.95-.83-5.97-1.46-8.83-2.51-15.91-5.84-24.99-21.28-20.98-36.26,1.2-4.47,3.73-8.59,5.82-13.23-8.11-3.99-7.26-11.96-6.46-19.69.46-4.42,3.43-7.45,7.48-9.31,4.06-1.86,8.33-3.37,12.16-5.62,2.54-1.49,4.69-3.83,6.57-6.14,1.35-1.66,1.92-3.79-.15-5.81-.71-.69-.81-2.19-.86-3.33-.12-2.86-.08-5.72-.02-8.59.02-.96-.01-2.27.57-2.82,2.6-2.5,1.96-5.6,1.97-8.58.03-7.6.1-15.2-.04-22.8-.06-3.02.77-5.37,3.37-7.02h8.37c2.82,1.42,3.72,3.71,3.67,6.79-.15,8.07-.05,16.15-.05,24.23,0,2.51-.37,5.05,1.82,7.1.59.55.65,1.83.68,2.78.07,3.15.08,6.3-.02,9.45-.03.95-.15,2.19-.75,2.76-2.19,2.1-1.45,4.33-.05,6.06,1.81,2.24,3.98,4.34,6.39,5.9,2.63,1.7,5.65,2.89,8.62,3.98,5.27,1.93,9.37,4.98,11.39,10.35v11.85c-1.51,3.7-3.58,6.96-6.59,8.36,2.3,5.55,4.44,10.74,6.59,15.94v8.3c-.16.36-.39.7-.47,1.07-2.77,12.81-11.05,20.61-23.14,24.86-2.42.85-4.98,1.29-7.48,1.92h-9.57ZM82.52,156.42c-4.38,0-8.77-.15-13.14.09-1.38.08-3.1.86-3.97,1.89-4.89,5.75-4.4,13.71.95,19.38,8.26,8.73,24.4,8.57,32.48-.32,5.05-5.56,5.37-13.6.56-19.18-.83-.96-2.44-1.7-3.73-1.76-4.37-.22-8.76-.08-13.14-.08ZM56.97,143.1c0-2.84.03-5.38,0-7.92-.05-4.24,1.94-7.08,5.84-8.76,5.29-2.28,10.46-4.9,15.87-6.84,2.22-.79,5.19-.84,7.4-.05,5.6,2,10.97,4.65,16.42,7.07,3.64,1.62,5.46,4.45,5.48,8.41.01,2.62,0,5.25,0,8.29,3.19-1.47,4.79-3.52,5-6.51.15-2.16.08-4.34.07-6.51-.02-3.41-1.64-5.83-4.74-7.24-4.16-1.9-8.35-3.73-12.49-5.65-4.32-2-7.5-5.16-9.33-9.55-.59-1.43-1.01-2.93-1.49-4.32-4.76-.38-4.72-.36-6.36,3.83-1.81,4.64-5.06,7.98-9.59,10.08-4.06,1.88-8.15,3.69-12.23,5.51-3.1,1.38-5,3.68-4.94,7.09.08,4.58-1.42,9.72,3.94,12.73.17.09.37.11,1.16.34ZM56.85,153.07c-5.41,6.53-6.56,16.17-2.89,24.23,5.6,12.28,20.52,19.44,34.78,16.46,11.91-2.49,20.6-8.9,23.67-21.07,1.79-7.1.19-13.75-3.56-18.72-1.44,1-2.74,1.89-4.06,2.81.57,1.16,1.37,2.54,1.92,4.01,2.86,7.6.7,15.77-5.61,21.56-9.62,8.83-25.88,9.31-36.04,1.08-8.52-6.9-10.04-15.26-4.95-26.98-1.1-1.14-2.18-2.27-3.26-3.39ZM102.65,136c.43-2.42-.36-3.96-2.51-4.89-5.28-2.3-10.52-4.71-15.84-6.91-1.05-.43-2.59-.46-3.64-.03-5.33,2.18-10.56,4.6-15.85,6.89-2.23.96-3.08,2.52-2.64,4.94h40.48ZM84.78,82.99v-30.08h-4.73v30.08h4.73Z"/>
        <path class="cls-1" d="M159.25,199.42c-2.95-.83-5.97-1.46-8.83-2.51-15.91-5.84-24.99-21.28-20.98-36.26,1.2-4.47,3.73-8.59,5.82-13.23-8.11-3.99-7.26-11.96-6.46-19.69.46-4.42,3.43-7.45,7.48-9.31,4.06-1.86,8.33-3.37,12.16-5.62,2.54-1.49,4.69-3.83,6.57-6.14,1.35-1.66,1.92-3.79-.15-5.81-.71-.69-.81-2.19-.86-3.33-.12-2.86-.08-5.72-.02-8.59.02-.96-.01-2.27.57-2.82,2.6-2.5,1.96-5.6,1.97-8.58.03-7.6.1-15.2-.04-22.8-.06-3.02.77-5.37,3.37-7.02h8.37c2.82,1.42,3.72,3.71,3.67,6.79-.15,8.07-.05,16.15-.05,24.23,0,2.51-.37,5.05,1.82,7.1.59.55.65,1.83.68,2.78.07,3.15.08,6.3-.02,9.45-.03.95-.15,2.19-.75,2.76-2.19,2.1-1.45,4.33-.05,6.06,1.81,2.24,3.98,4.34,6.39,5.9,2.63,1.7,5.65,2.89,8.62,3.98,5.27,1.93,9.37,4.98,11.39,10.35v11.85c-1.51,3.7-3.58,6.96-6.59,8.36,2.3,5.55,4.44,10.74,6.59,15.94v8.3c-.16.36-.39.7-.47,1.07-2.77,12.81-11.05,20.61-23.14,24.86-2.42.85-4.98,1.29-7.48,1.92h-9.57ZM164.26,156.42c-4.38,0-8.77-.15-13.14.09-1.38.08-3.1.86-3.97,1.89-4.89,5.75-4.4,13.71.95,19.38,8.26,8.73,24.4,8.57,32.48-.32,5.05-5.56,5.37-13.6.56-19.18-.83-.96-2.44-1.7-3.73-1.76-4.37-.22-8.76-.08-13.14-.08ZM138.72,143.1c0-2.84.03-5.38,0-7.92-.05-4.24,1.94-7.08,5.84-8.76,5.29-2.28,10.46-4.9,15.87-6.84,2.22-.79,5.19-.84,7.4-.05,5.6,2,10.97,4.65,16.42,7.07,3.64,1.62,5.46,4.45,5.48,8.41.01,2.62,0,5.25,0,8.29,3.19-1.47,4.79-3.52,5-6.51.15-2.16.08-4.34.07-6.51-.02-3.41-1.64-5.83-4.74-7.24-4.16-1.9-8.35-3.73-12.49-5.65-4.32-2-7.5-5.16-9.33-9.55-.59-1.43-1.01-2.93-1.49-4.32-4.76-.38-4.72-.36-6.36,3.83-1.81,4.64-5.06,7.98-9.59,10.08-4.06,1.88-8.15,3.69-12.23,5.51-3.1,1.38-5,3.68-4.94,7.09.08,4.58-1.42,9.72,3.94,12.73.17.09.37.11,1.16.34ZM138.59,153.07c-5.41,6.53-6.56,16.17-2.89,24.23,5.6,12.28,20.52,19.44,34.78,16.46,11.91-2.49,20.6-8.9,23.67-21.07,1.79-7.1.19-13.75-3.56-18.72-1.44,1-2.74,1.89-4.06,2.81.57,1.16,1.37,2.54,1.92,4.01,2.86,7.6.7,15.77-5.61,21.56-9.62,8.83-25.88,9.31-36.04,1.08-8.52-6.9-10.04-15.26-4.95-26.98-1.1-1.14-2.18-2.27-3.26-3.39ZM184.4,136c.43-2.42-.36-3.96-2.51-4.89-5.28-2.3-10.52-4.71-15.84-6.91-1.05-.43-2.59-.46-3.64-.03-5.33,2.18-10.56,4.6-15.85,6.89-2.23.96-3.08,2.52-2.64,4.94h40.48ZM166.53,82.99v-30.08h-4.73v30.08h4.73Z"/>
      </g>
    </g>
  </g>
</svg>